<svg width="67" height="28" viewBox="0 0 67 28" fill="none" xmlns="http://www.w3.org/2000/svg">
<path d="M32.3988 14.0001C32.3988 16.3191 32.3988 18.6391 32.3988 20.958C32.3988 21.0878 32.4008 21.2186 32.3823 21.3463C32.34 21.6411 32.1966 21.7677 31.8997 21.7698C31.2634 21.7739 30.6271 21.7718 29.9898 21.7718C28.2925 21.7718 26.5951 21.775 24.8977 21.7708C22.7373 21.7646 20.7832 20.1847 20.3357 18.0567C19.9954 16.4364 20.3594 14.9748 21.4669 13.7416C22.0299 13.1146 22.7765 12.7576 23.586 12.5468C24.5079 12.306 25.4505 12.3361 26.3899 12.3392C26.9158 12.3413 27.4417 12.3392 27.9676 12.3392C28.5276 12.3392 28.969 12.1244 29.2484 11.6188C29.531 11.1071 29.4907 10.5995 29.203 10.1116C29.0195 9.8002 28.7266 9.6227 28.3739 9.5656C28.1564 9.53031 27.9336 9.51682 27.7129 9.51578C26.1352 9.51163 24.5585 9.51474 22.9807 9.5137C22.3878 9.5137 22.2073 9.32997 22.2063 8.72999C22.2052 8.11755 22.2032 7.50511 22.2073 6.89267C22.2114 6.40375 22.3723 6.24805 22.859 6.24805C25.8021 6.24805 28.7441 6.24805 31.6872 6.24805C32.2791 6.24805 32.3998 6.36534 32.3998 6.95806C32.4008 9.30506 32.3998 11.6521 32.3998 14.0001H32.3988ZM26.4837 18.5072C27.0097 18.5072 27.5345 18.5083 28.0605 18.5072C28.8679 18.5041 29.434 17.9363 29.4423 17.1235C29.4516 16.2723 28.8968 15.6879 28.0646 15.6838C27.0231 15.6786 25.9805 15.6786 24.939 15.6838C24.1522 15.6869 23.6438 16.126 23.5664 16.9118C23.4819 17.7796 23.9511 18.5093 24.9338 18.5083C25.4505 18.5083 25.9661 18.5083 26.4827 18.5083L26.4837 18.5072Z" fill="white"/>
<path d="M61.4252 14.0312C61.4252 16.3782 61.4252 18.7263 61.4252 21.0733C61.4252 21.6805 61.3345 21.7729 60.7446 21.7729C58.4935 21.7729 56.2424 21.7563 53.9923 21.7781C51.8999 21.7978 49.7664 20.248 49.3529 17.8844C49.0868 16.3658 49.4209 14.9634 50.4707 13.7946C51.1946 12.989 52.1371 12.5904 53.19 12.4389C54.4656 12.2552 55.7505 12.3662 57.0302 12.3423C58.1099 12.3226 58.774 11.323 58.3564 10.3182C58.1841 9.904 57.8614 9.65903 57.4283 9.56353C57.2292 9.51889 57.0261 9.5137 56.8229 9.5137C55.2359 9.51474 53.6499 9.51474 52.0629 9.5137C51.4235 9.5137 51.2678 9.35385 51.2668 8.70404C51.2668 8.0916 51.2647 7.47916 51.2668 6.86672C51.2688 6.38922 51.4091 6.24805 51.8731 6.24805C54.8533 6.24805 57.8325 6.24805 60.8127 6.24805C61.3097 6.24805 61.4252 6.36534 61.4252 6.8771C61.4252 9.26146 61.4252 11.6458 61.4252 14.0302V14.0312ZM55.5484 15.6817C55.0596 15.6817 54.5698 15.7087 54.0841 15.6744C53.2385 15.6142 52.5393 16.2516 52.6094 17.2035C52.6641 17.9498 53.1776 18.5 53.918 18.5041C54.9956 18.5103 56.0743 18.5103 57.1519 18.5041C57.9542 18.5 58.4626 17.9508 58.4636 17.1048C58.4636 16.2329 57.9717 15.6942 57.1519 15.6817C56.6177 15.6744 56.0836 15.6807 55.5484 15.6807V15.6817Z" fill="white"/>
<path d="M35.1055 14C35.1055 11.6811 35.1055 9.36211 35.1055 7.04314C35.1055 6.91339 35.1055 6.78259 35.1251 6.65491C35.1663 6.39022 35.3169 6.24697 35.5963 6.24801C37.7082 6.25112 39.8243 6.17534 41.9321 6.27188C44.5142 6.39022 46.6107 8.04484 47.2036 10.6773C47.3449 11.3043 47.4088 11.9354 47.4078 12.5779C47.4026 15.3889 47.4057 18.1989 47.4047 21.0099C47.4047 21.1303 47.4119 21.2538 47.3892 21.3701C47.3418 21.6151 47.1995 21.7697 46.9345 21.7697C46.1322 21.7708 45.3299 21.7708 44.5276 21.7697C44.2894 21.7697 44.1461 21.6379 44.1038 21.4106C44.077 21.2663 44.0739 21.1158 44.0739 20.9684C44.0718 18.121 44.0749 15.2727 44.0718 12.4253C44.0698 11.0541 43.285 9.93925 42.0239 9.62265C40.9349 9.34965 39.6675 9.58113 38.9374 10.588C38.6064 11.0448 38.4456 11.5596 38.4445 12.1222C38.4425 15.0817 38.4435 18.0401 38.4425 20.9995C38.4425 21.1106 38.4476 21.2227 38.4342 21.3327C38.4002 21.6099 38.2321 21.7677 37.9557 21.7697C37.1627 21.7739 36.3697 21.7708 35.5757 21.7718C35.3241 21.7718 35.1766 21.64 35.1333 21.4002C35.1086 21.2652 35.1065 21.1241 35.1065 20.985C35.1055 18.6567 35.1055 16.3284 35.1055 14Z" fill="white"/>
<path d="M12.5405 21.7716C11.268 21.7716 9.99447 21.7716 8.72196 21.7716C8.26513 21.7716 8.15685 21.6917 8.07333 21.2318C7.90008 20.2748 7.74334 19.3156 7.57628 18.3575C7.33292 16.9614 7.08543 15.5662 6.84412 14.1701C6.64201 13.0023 6.44711 11.8335 6.24602 10.6646C6.03772 9.46987 5.82632 8.27509 5.61905 7.08031C5.59739 6.95263 5.58398 6.82184 5.58398 6.69313C5.58605 6.42739 5.7232 6.25923 5.98306 6.25611C6.82247 6.2447 7.66187 6.24885 8.50128 6.25404C8.78074 6.25611 8.87355 6.47203 8.92304 6.6952C9.00863 7.08343 9.07876 7.4758 9.14785 7.86818C9.32315 8.86262 9.49433 9.85705 9.66758 10.8515C9.94497 12.4386 10.2203 14.0258 10.5008 15.613C10.5843 16.0873 10.673 16.5607 10.771 17.0319C10.9494 17.8914 11.6516 18.4769 12.5189 18.5008C13.35 18.5236 14.1142 17.9651 14.3307 17.143C14.539 16.3541 14.6329 15.5424 14.7783 14.74C15.033 13.3272 15.2805 11.9134 15.5279 10.4996C15.7249 9.36814 15.9167 8.23668 16.1106 7.10523C16.1188 7.05955 16.1219 7.01284 16.1302 6.96717C16.2415 6.31736 16.324 6.24677 16.9706 6.24677C17.644 6.24677 18.3174 6.2447 18.9907 6.24781C19.4105 6.24989 19.5827 6.42012 19.5198 6.82911C19.363 7.84431 19.1856 8.85743 19.0124 9.87055C18.7732 11.2667 18.5308 12.6629 18.2885 14.059C18.0843 15.2361 17.876 16.4133 17.6718 17.5904C17.4687 18.7582 17.2676 19.926 17.0655 21.0938C17.0541 21.1581 17.0438 21.2215 17.0304 21.2848C16.949 21.6626 16.8252 21.7685 16.4437 21.7685C15.1433 21.7706 13.8429 21.7685 12.5416 21.7685L12.5405 21.7716Z" fill="white"/>
</svg>
