<svg width="256" height="256" viewBox="0 0 256 256" fill="none" xmlns="http://www.w3.org/2000/svg">
<rect width="256" height="256" rx="7.68" transform="matrix(-1 0 0 1 256 0)" fill="#4141FC"/>
<path d="M127.985 204.544C115.438 204.544 102.88 204.544 90.3323 204.544C85.8278 204.544 84.7602 203.756 83.9366 199.222C82.2283 189.785 80.6827 180.327 79.0355 170.88C76.6358 157.113 74.1955 143.357 71.8161 129.59C69.8232 118.075 67.9014 106.55 65.9186 95.0248C63.8646 83.2438 61.7801 71.4628 59.7363 59.6818C59.5228 58.4228 59.3906 57.1332 59.3906 55.864C59.411 53.2437 60.7633 51.5856 63.3257 51.5549C71.6026 51.4423 79.8795 51.4832 88.1563 51.5344C90.9119 51.5549 91.827 53.6838 92.3151 55.8845C93.1591 59.7125 93.8505 63.5815 94.5318 67.4505C96.2604 77.2561 97.9483 87.0616 99.6565 96.8672C102.392 112.517 105.107 128.167 107.872 143.817C108.696 148.495 109.57 153.162 110.536 157.809C112.296 166.284 119.22 172.057 127.771 172.292C135.967 172.517 143.502 167.011 145.637 158.904C147.691 151.125 148.616 143.121 150.05 135.209C152.561 121.279 155.002 107.338 157.442 93.3974C159.384 82.2407 161.276 71.0841 163.187 59.9275C163.269 59.4771 163.299 59.0165 163.38 58.5661C164.479 52.1587 165.292 51.4627 171.667 51.4627C178.307 51.4627 184.947 51.4423 191.587 51.473C195.725 51.4934 197.423 53.1721 196.803 57.2048C195.258 67.2151 193.509 77.2049 191.8 87.1947C189.441 100.961 187.052 114.728 184.662 128.495C182.649 140.102 180.595 151.709 178.582 163.316C176.579 174.831 174.596 186.345 172.603 197.86C172.491 198.495 172.389 199.119 172.257 199.744C171.454 203.469 170.234 204.513 166.471 204.513C153.649 204.534 140.827 204.513 127.995 204.513L127.985 204.544Z" fill="white"/>
</svg>
