<svg width="991" height="918" viewBox="0 0 991 918" fill="none" xmlns="http://www.w3.org/2000/svg">
<path d="M873.054 452.27C828.256 411.791 766.291 380.474 755.305 341.075C748.118 315.306 838.385 288.606 776.531 249.915C756.981 237.664 743.724 222.172 741.341 207.575C734.787 167.767 789.788 168.251 806.397 139.465C821.218 113.771 798.242 58.397 771.318 45.9593C726.595 25.2919 685.185 51.6941 656.884 42.9058C629.514 34.4154 628.247 29.984 599.574 29.3881C549.227 28.3082 502.94 87.7038 457.695 65.5841C426.228 50.13 419.115 2.4274 377.967 0.0813669C360.8 -0.886836 344.378 6.85879 332.685 19.4082C309.262 44.5442 306.134 79.4368 305.798 112.393C305.501 140.396 306.692 169.182 297.345 195.621C286.397 226.492 261.298 253.527 261.931 286.297C262.415 313.072 280.551 336.569 301.777 352.88C305.016 355.375 308.368 357.721 311.757 360.03C296.563 366.807 286.695 384.533 278.056 399.912C239.663 468.096 176.841 522.204 103.667 550.058C80.7284 558.772 56.5605 565.14 36.0048 578.546C15.4491 591.914 -1.38272 614.555 0.628168 639.021C2.19219 657.938 14.332 674.025 21.8542 691.416C37.3454 727.351 39.617 777.809 78.8292 787.938C97.1878 792.668 116.477 785.629 129.213 771.591C156.732 741.241 155.69 701.731 162.616 664.753C167.904 636.489 180.304 606.512 206.26 594.074C217.506 588.675 230.241 587.185 241.674 582.27C286.77 562.905 297.308 499.823 339.797 475.209C362.103 462.287 391.41 463.516 426.638 476.884C391.336 458.898 371.189 430.038 332.014 430.038C305.761 430.038 290.903 459.27 278.465 488.875C259.138 534.828 224.544 563.874 190.917 569.162C177.698 571.247 175.017 558.66 185.518 556.351C222.272 548.196 249.494 517.772 263.98 470.74C278.316 424.192 303.415 401.625 321.625 395.481C348.288 386.506 378.414 397.864 399.118 416.93C399.23 417.042 399.342 417.154 399.491 417.265C403.661 421.138 409.843 415.664 406.343 411.121C389.92 389.895 374.466 384.421 364.635 361.221C353.985 336.011 367.763 317.652 380.797 293.596C386.532 282.983 394.575 273.599 398.597 262.204C404.779 244.739 404.928 225.784 402.097 207.463C399.156 188.471 382.435 181.955 382.435 195.584C382.435 210.256 382.808 228.205 374.094 243.845C362.438 264.773 349.591 250.883 353.24 239.079C359.794 217.741 367.987 195.063 351.788 181.173C325.535 158.681 326.987 149.408 324.604 129.821C322.072 108.855 322.593 75.9364 333.243 49.9438C345.718 19.5199 377.148 10.6571 398.858 28.3827C425.074 49.7576 438.666 74.2234 439.671 84.7619C444.736 137.864 379.754 140.098 404.481 164.825C418.669 179.013 482.458 146.168 523.011 159.016C531.837 161.809 541.035 166.575 543.343 171.602C555.185 197.446 502.977 180.763 542.822 223.141C564.532 246.266 515.377 236.844 474.042 256.506C435.277 274.977 419.004 289.425 412.003 324.876C403.177 369.525 448.385 362.227 459.296 360.737C515.079 353.14 454.604 415.85 446.709 429.256C439.15 442.066 441.943 463.516 456.615 465.638C471.398 467.724 479.405 457.073 492.178 464.707C498.434 468.468 500.482 473.086 499.998 478.15C499.141 487.199 506.738 494.796 515.787 494.275H516.085C519.846 494.051 523.346 492.45 525.99 489.732C533.103 482.396 545.652 466.383 538.8 449.588C532.73 434.73 487.634 416.595 494.97 390.305C499.476 374.069 527.331 364.722 569.559 367.924C596.818 370.01 619.385 365.876 637.483 344.24C653.942 324.504 658.299 290.878 696.804 290.878C751.88 290.878 750.092 341.373 746.405 340.032C713.822 328.042 696.245 346.214 695.761 345.767C674.498 326.627 652.676 338.729 636.328 362.189C609.777 400.247 576.411 380.995 562.968 406.019C551.499 427.357 570.453 450.631 558.164 471.522C555.52 475.991 546.769 482.88 549.562 486.641C553.659 492.189 581.513 469.288 611.192 481.39C644.148 494.833 648.766 466.83 646.941 440.279C645.899 425.123 665.784 420.542 680.381 423.67C703.805 428.698 721.902 452.381 727.079 484.518C729.536 499.786 727.414 516.543 735.532 529.689C741.192 538.887 751.358 545.217 755.045 555.383C759.104 566.592 754.114 578.806 751.284 590.388C736.947 649.076 789.788 713.163 850.189 712.716C910.59 712.269 972.518 633.137 985.068 574.04C1017.09 422.888 907.202 483.14 872.942 452.232L873.054 452.27ZM734.899 143.524C655.245 157.973 602.292 230.737 592.61 307.933C588.588 339.846 559.654 330.686 562.707 298.139C567.362 248.686 629.737 181.768 667.273 156.335C718.104 121.889 707.007 107.962 682.839 109.265C652.043 110.903 625.008 137.603 605.867 130.044C585.721 122.112 603.298 98.4657 586.503 86.7728C563.043 70.4251 518.952 94.7791 528.448 74.4096C536.864 56.4234 594.546 60.1845 610.708 74.0372C625.343 86.5866 634.876 104.647 662.693 94.3695C687.569 85.1716 721.716 45.3635 753.853 53.9284C794.518 64.7648 805.019 130.789 734.899 143.524ZM909.213 528.013C893.796 538.477 865.83 526.3 851.791 512.261C830.341 490.812 825.463 496.732 827.772 514.086C833.804 558.809 787.666 551.771 795.598 612.545C796.231 617.237 789.528 618.875 788.038 614.369C777.462 582.009 789.453 575.194 789.453 549.313C789.453 493.716 829.596 543.69 792.544 479.044C777.09 452.083 806.248 440.428 816.377 456.813C830.416 479.491 905.228 535.945 904.893 479.193C904.893 474.948 910.851 473.905 912.229 477.927C918.783 496.993 927.311 515.687 909.175 527.976L909.213 528.013Z" fill="white"/>
<path d="M640.278 517.142C618.68 499.081 597.454 499.528 580.473 504.965C557.794 512.226 547.628 530.92 545.655 534.346C530.312 560.674 528.339 592.401 526.738 622.825C522.753 698.494 528.935 844.469 514.784 842.905C501.304 841.415 506.778 763.438 503.017 701.696C493.037 538.926 479.184 543.73 459.224 528.239C437.663 511.482 400.164 505.114 378.267 513.008C378.193 513.008 378.118 513.083 378.044 513.083C364.117 516.918 368.473 524.627 381.73 526.116C401.43 528.276 415.208 540.714 417.182 552.667C420.123 570.542 408.654 587.113 372.905 582.347C343.747 578.436 315.893 583.836 315.893 612.919C317.68 660.622 348.737 698.047 347.322 750.628C346.801 769.135 343.673 789.468 354.174 804.735C364.042 819.072 382.624 823.951 396.924 833.819C414.687 846.107 425.486 865.844 438.408 883.234C451.329 900.588 469.204 917.084 490.839 917.27C517.055 917.494 536.792 894.443 560.476 883.272C563.939 881.633 567.179 880.293 570.418 879.101C579.169 875.898 584.904 867.445 585.128 858.136C585.165 856.385 585.165 854.635 585.128 853.071C584.308 834.526 578.983 816.54 574.254 798.628C565.093 763.773 558.279 726.87 563.827 691.679C564.2 689.296 567.663 689.556 567.663 691.94C567.849 729.029 577.419 766.119 595.368 798.591C599.725 806.486 606.205 815.088 615.254 814.939C620.355 814.864 625.047 811.811 628.324 807.901C638.975 795.24 634.878 778.296 627.952 763.289C622.366 751.224 613.466 734.615 608.104 713.017C607.545 710.782 610.711 709.628 611.753 711.676C626.462 740.573 646.199 758.224 657.035 762.693C663.924 765.523 671.67 761.613 673.458 754.389C683.661 713.389 692.561 671.645 689.284 629.64C685.56 582.16 676.809 547.715 640.278 517.142Z" fill="white"/>
</svg>
