<svg width="425" height="553" viewBox="0 0 425 553" fill="none" xmlns="http://www.w3.org/2000/svg">
<rect width="425" height="553" fill="#161616"/>
<path d="M149.941 113.011L215.372 150.801L285.214 105.656M149.941 113.011L220.272 68.1482L285.214 105.656M149.941 113.011V129.191M285.214 105.656V114.012M149.941 129.191L158.763 134.286L215.372 166.981M149.941 129.191V187.583M215.372 166.981L270.142 131.765V193.543L218.273 223.501L215.372 225.177M215.372 166.981V225.177M202.138 232.82V265.617M202.138 232.82L136.847 195.108M202.138 232.82L215.372 225.177M202.138 265.617L185.229 255.142M202.138 265.617L227.502 280.165M136.847 195.108V225.167L155.841 236.935M136.847 195.108L149.941 187.583M215.372 225.177L149.941 187.583M229.708 281.43L227.502 280.165M404.68 152.977L314.988 204.78L285.214 187.583V114.012M404.68 152.977V206.781M404.68 152.977L312.415 98.3018L285.214 114.012M341.455 255.321L321.237 267.088M155.841 236.935L152.788 248.334L132.664 259.957M155.841 236.935L185.229 255.142M185.229 255.142L154.719 272.763M227.502 280.165L196.257 297.61" stroke="#EAEAEA" stroke-width="3.13008"/>
<path d="M297.148 302.72C291.55 314.18 280.908 320.486 273.378 316.804C265.849 313.122 264.282 300.847 269.88 289.387C275.478 277.927 286.12 271.621 293.65 275.303C301.179 278.984 302.746 291.259 297.148 302.72Z" fill="#161616"/>
<path d="M315.797 311.838C302.542 338.973 277.344 353.904 259.515 345.187C241.686 336.469 237.977 307.405 251.231 280.269C264.486 253.134 289.684 238.203 307.513 246.92C325.342 255.637 329.051 284.702 315.797 311.838Z" fill="#161616"/>
<path d="M259.515 345.187C277.344 353.904 302.542 338.973 315.797 311.838C329.051 284.702 325.342 255.637 307.513 246.92M259.515 345.187C241.686 336.469 237.977 307.405 251.231 280.269C264.486 253.134 289.684 238.203 307.513 246.92M259.515 345.187L242.346 336.617C224.517 327.9 220.809 298.835 234.063 271.7C247.317 244.564 272.515 229.633 290.345 238.351L307.513 246.92M297.148 302.72C291.55 314.18 280.908 320.486 273.378 316.804C265.849 313.122 264.282 300.847 269.88 289.387C275.478 277.927 286.12 271.621 293.65 275.303C301.179 278.984 302.746 291.259 297.148 302.72Z" stroke="#EAEAEA" stroke-width="3.13008"/>
<path d="M399.167 253.868C394.67 263.105 386.12 268.187 380.07 265.22C374.021 262.252 372.762 252.359 377.259 243.123C381.757 233.886 390.307 228.804 396.356 231.771C402.406 234.738 403.664 244.631 399.167 253.868Z" fill="#161616"/>
<path d="M414.15 261.217C403.501 283.087 383.256 295.121 368.932 288.095C354.608 281.069 351.628 257.644 362.277 235.774C372.926 213.903 393.17 201.869 407.495 208.895C421.819 215.921 424.799 239.346 414.15 261.217Z" fill="#161616"/>
<path d="M368.932 288.095C383.256 295.121 403.501 283.087 414.15 261.217C424.799 239.346 421.819 215.921 407.495 208.895M368.932 288.095C354.608 281.069 351.628 257.644 362.277 235.774C372.926 213.903 393.17 201.869 407.495 208.895M368.932 288.095L355.138 281.189C340.814 274.163 337.835 250.737 348.483 228.867C359.132 206.997 379.377 194.963 393.701 201.989L407.495 208.895M399.167 253.868C394.67 263.105 386.12 268.187 380.07 265.22C374.021 262.252 372.762 252.359 377.259 243.123C381.757 233.886 390.307 228.804 396.356 231.771C402.406 234.738 403.664 244.631 399.167 253.868Z" stroke="#EAEAEA" stroke-width="3.13008"/>
<path d="M5 286.063L27.7892 243.385L66.7513 221.679L233.627 319.911V361.485L175.551 396.069L135.854 370.464L105.713 351.024L76.3081 332.057L47.2703 313.328L18.2324 294.598L5 286.063Z" fill="#161616"/>
<path d="M192.092 345.297L175.551 396.069M192.092 345.297L27.7892 243.385M192.092 345.297L233.627 319.911M175.551 396.069L233.627 361.485V319.911M175.551 396.069L135.854 370.464M27.7892 243.385L5 286.063L18.2324 294.598M27.7892 243.385L66.7513 221.679L233.627 319.911M18.2324 294.598L39.9189 281.648M18.2324 294.598L47.2703 313.328M47.2703 313.328L68.9567 301.884M47.2703 313.328L76.3081 332.057M76.3081 332.057L98.7297 319.911M76.3081 332.057L105.713 351.024M105.713 351.024L129.238 337.571M105.713 351.024L135.854 370.464M135.854 370.464L158.276 356.335" stroke="#EAEAEA" stroke-width="3.13008"/>
<path d="M364.897 330.208L364.897 352.013L380.02 337.081L380.566 336.541L381.112 337.081L386.811 342.707L387.368 343.258L386.813 343.812L371.831 358.722L393.775 358.722L393.775 368.333L371.842 368.333L386.811 383.113L387.377 383.672L386.804 384.226L380.977 389.852L380.43 390.379L379.89 389.846L364.897 375.041L364.897 396.86L364.107 396.847L355.947 396.719L355.182 396.707L355.182 375.052L340.191 389.971L339.638 390.522L339.09 389.967L333.392 384.213L332.843 383.66L333.398 383.113L348.366 368.333L326.303 368.333L326.303 358.722L348.377 358.722L333.396 343.812L332.839 343.258L333.398 342.707L339.096 337.081L339.645 336.539L340.191 337.083L355.182 352.002L355.182 330.208L364.897 330.208Z" fill="#EAEAEA" stroke="#EAEAEA" stroke-width="1.55547"/>
<path d="M401.045 439.999L401.045 454.451L411.301 444.194L416.222 449.115L415.676 449.665L406.044 459.374L420.42 459.374L420.42 466.402L406.054 466.402L416.23 476.578L415.668 477.128L411.759 480.951L411.209 481.488L410.665 480.945L401.045 471.325L401.045 485.79L400.255 485.777L394.781 485.69L394.016 485.679L394.016 471.334L384.398 481.029L383.842 481.59L383.29 481.025L379.467 477.116L378.929 476.566L389.093 466.402L374.641 466.402L374.641 459.374L389.104 459.374L379.471 449.665L378.926 449.115L383.848 444.192L384.398 444.746L394.016 454.44L394.016 439.999L401.045 439.999Z" fill="#EAEAEA" stroke="#EAEAEA" stroke-width="1.55547"/>
<path d="M294.225 403.979L294.225 418.431L304.481 408.174L309.402 413.095L308.856 413.645L299.224 423.354L313.6 423.354L313.6 430.382L299.234 430.382L309.41 440.558L308.848 441.107L304.938 444.931L304.389 445.468L303.845 444.925L294.225 435.305L294.225 449.77L293.434 449.757L287.961 449.67L287.196 449.658L287.196 435.313L277.578 445.009L277.022 445.569L276.47 445.005L272.647 441.096L272.109 440.546L282.273 430.382L267.821 430.382L267.821 423.354L282.284 423.354L272.651 413.645L272.105 413.095L277.028 408.172L277.578 408.726L287.196 418.42L287.196 403.979L294.225 403.979Z" fill="#EAEAEA" stroke="#EAEAEA" stroke-width="1.55547"/>
<path d="M100.716 395.292L100.716 409.744L110.973 399.487L115.894 404.408L115.348 404.958L105.715 414.667L120.091 414.667L120.091 421.695L105.726 421.695L115.902 431.871L115.339 432.421L111.43 436.244L110.88 436.781L110.336 436.238L100.716 426.618L100.716 441.083L99.926 441.07L94.4524 440.983L93.6877 440.972L93.6877 426.627L84.0695 436.322L83.5139 436.883L82.9611 436.318L79.1389 432.409L78.6008 431.859L88.7649 421.695L74.3127 421.695L74.3127 414.667L88.7756 414.667L79.1428 404.958L78.5969 404.408L83.5197 399.485L84.0695 400.039L93.6877 409.733L93.6877 395.292L100.716 395.292Z" fill="#EAEAEA" stroke="#EAEAEA" stroke-width="1.55547"/>
<path d="M42.104 426.336L42.104 443.136L53.4761 431.764L54.0259 431.213L54.5757 431.764L58.9761 436.163L59.524 436.711L58.9781 437.261L47.6939 448.635L64.4038 448.635L64.4038 456.49L47.7046 456.49L58.9761 467.763L59.5318 468.319L58.9693 468.868L54.4702 473.269L53.9195 473.806L53.3765 473.262L42.104 461.99L42.104 478.802L41.314 478.79L35.0142 478.69L34.2486 478.678L34.2486 462L22.979 473.361L22.4224 473.921L21.8706 473.356L17.4712 468.856L16.9331 468.306L17.4771 467.763L28.7486 456.49L11.9497 456.49L11.9497 448.635L28.7593 448.635L17.4751 437.261L16.9292 436.711L22.4292 431.211L22.979 431.766L34.2486 443.124L34.2486 426.336L42.104 426.336Z" fill="#EAEAEA" stroke="#EAEAEA" stroke-width="1.55547"/>
<path d="M39.9162 336.884L39.9162 347.227L46.7082 340.436L47.258 339.886L51.1691 343.797L50.6232 344.347L43.882 351.141L54.173 351.141L54.173 356.724L43.8937 356.724L50.6212 363.451L51.1769 364.008L50.6144 364.558L47.7375 367.37L47.1877 367.908L39.9162 360.637L39.9162 370.993L39.1261 370.98L35.0988 370.917L34.3332 370.904L34.3332 360.646L27.6076 367.426L27.0509 367.986L26.4992 367.422L23.6857 364.545L23.1486 363.995L23.6925 363.451L30.4191 356.724L20.0763 356.724L20.0763 351.141L30.4308 351.141L23.6896 344.347L23.1447 343.797L23.6925 343.249L26.505 340.436L27.0578 339.884L27.6076 340.438L34.3332 347.217L34.3332 336.884L39.9162 336.884Z" fill="#EAEAEA" stroke="#EAEAEA" stroke-width="1.55547"/>
</svg>
