<svg width="425" height="553" viewBox="0 0 425 553" fill="none" xmlns="http://www.w3.org/2000/svg">
<rect width="425" height="553" fill="#161616"/>
<path d="M417 361.089L365.875 391.764L314.75 422.439L263.625 453.114L212.5 483.788V514.463L417 391.764V361.089Z" fill="#161616"/>
<path d="M212.5 514.463V483.788L186.938 468.451V483.788V499.126L212.5 514.463Z" fill="#161616"/>
<path d="M365.875 391.764L417 361.089L391.438 345.75L365.874 361.088L352.62 369.041L216.476 450.728L186.938 468.451L212.5 483.788L263.625 453.114L314.75 422.439L365.875 391.764Z" fill="#161616"/>
<path d="M96.0486 414.485L121.611 429.822L151.15 412.099C200.571 382.219 299.639 322.46 300.547 322.46L326.111 307.122L300.549 291.784L96.0486 414.485Z" fill="#161616"/>
<path d="M121.611 429.822V445.16V460.497L326.111 337.797V322.459V307.122L300.547 322.46C299.639 322.46 200.571 382.219 151.15 412.099L121.611 429.822Z" fill="#161616"/>
<path d="M96.0486 414.485V445.16L121.611 460.497V445.16V429.822L96.0486 414.485Z" fill="#161616"/>
<path d="M33.5625 376.426V391.764V407.101L238.063 284.4V269.063V253.725L212.499 269.064C211.591 269.064 112.522 328.823 63.1014 358.703L33.5625 376.426Z" fill="#161616"/>
<path d="M8 361.089V391.764L33.5625 407.101V391.764V376.426L8 361.089Z" fill="#161616"/>
<path d="M8 361.089L33.5625 376.426L63.1014 358.703C112.522 328.823 211.591 269.064 212.499 269.064L238.063 253.725L212.5 238.388L8 361.089Z" fill="#161616"/>
<path d="M417 361.089L365.875 391.764L314.75 422.439L263.625 453.114L212.5 483.788M417 361.089V391.764L212.5 514.463M417 361.089L391.438 345.75M8 361.089V391.764L33.5625 407.101M8 361.089L33.5625 376.426M8 361.089L212.5 238.388L238.063 253.725M212.5 483.788V514.463M212.5 483.788L186.938 468.451M212.5 514.463L186.938 499.126V483.788V468.451M186.938 468.451L352.62 369.041M186.938 468.451L216.476 450.728L352.62 369.041M33.5625 376.426V391.764V407.101M33.5625 376.426L63.1014 358.703C112.522 328.823 211.591 269.064 212.499 269.064L238.063 253.725M33.5625 407.101L238.063 284.4V269.063V253.725M391.438 345.75L352.62 369.041M391.438 345.75L365.874 361.088L352.62 369.041M96.0486 414.485V445.16L121.611 460.497M96.0486 414.485L121.611 429.822M96.0486 414.485L300.549 291.784L326.111 307.122M121.611 429.822V445.16V460.497M121.611 429.822L151.15 412.099C200.571 382.219 299.639 322.46 300.547 322.46L326.111 307.122M121.611 460.497L326.111 337.797V322.459V307.122" stroke="#EAEAEA" stroke-width="3.28242"/>
<path d="M212.5 475.836L8 353.135L212.5 231.003L417 353.135L212.5 475.836Z" fill="#161616"/>
<path d="M212.5 483.788L417 361.088V353.135L212.5 475.836V483.788Z" fill="#161616"/>
<path d="M8 361.088L212.5 483.788V475.836L8 353.135V361.088Z" fill="#161616"/>
<path d="M212.5 483.788L8 361.088V353.135M212.5 483.788L417 361.088M212.5 483.788V475.836M417 361.088C417 358.815 417 354.044 417 353.135M417 361.088V353.135M8 353.135L212.5 475.836M8 353.135L212.5 231.003L417 353.135M212.5 475.836L417 353.135" stroke="#EAEAEA" stroke-width="3.28242"/>
<path d="M212.5 374.788L28.8408 264.774L212.5 155.269L396.159 264.773L212.5 374.788Z" fill="#161616"/>
<path d="M212.5 462.67L396.159 352.656V264.773L212.5 374.788V462.67Z" fill="#161616"/>
<path d="M28.8408 352.656L212.5 462.67V374.788L28.8408 264.774V352.656Z" fill="#161616"/>
<path d="M212.5 462.67L28.8408 352.656V264.774M212.5 462.67L396.159 352.656M212.5 462.67V374.788M396.159 352.656C396.159 350.618 396.159 265.588 396.159 264.773M396.159 352.656V264.773M28.8408 264.774L212.5 374.788M28.8408 264.774L212.5 155.269L396.159 264.773M212.5 374.788L396.159 264.773" stroke="#EAEAEA" stroke-width="3.28242"/>
<path d="M121.611 266.223L213.068 316.211L302.821 266.584V197.385C302.821 177.533 294.919 172.346 270.488 162.785C241.499 151.441 236.482 145.202 236.482 128.753L189.21 128.185C189.21 144.659 184.097 150.907 154.558 162.268C129.663 171.844 121.611 177.038 121.611 196.92V266.223Z" fill="#161616" stroke="#EAEAEA" stroke-width="3.28242"/>
<rect x="170.464" y="39" width="85.2083" height="96.5694" rx="42.6042" fill="#161616" stroke="#EAEAEA" stroke-width="3.28242"/>
<path d="M366.45 373.052L305.767 331.201C303.809 329.851 303.317 327.169 304.667 325.211L331.441 286.391C332.791 284.433 335.472 283.94 337.43 285.291L398.113 327.142C400.07 328.492 400.563 331.174 399.213 333.131L372.439 371.952C371.089 373.91 368.407 374.402 366.45 373.052Z" fill="#161616" stroke="#EAEAEA" stroke-width="3.28242"/>
<circle cx="329.531" cy="313.717" r="5.87027" transform="rotate(-10.407 329.531 313.717)" stroke="#EAEAEA" stroke-width="3.28242"/>
<path d="M377.229 346.517C374.553 350.397 371.695 352.932 368.656 354.12C365.617 355.309 362.422 355.147 359.071 353.635L362.639 346.242C364.17 346.854 365.699 346.888 367.228 346.344C368.757 345.801 370.227 344.506 371.637 342.461C372.55 341.138 373.182 339.931 373.534 338.842C373.855 337.733 373.921 336.801 373.73 336.048C373.509 335.275 373.038 334.639 372.316 334.141C371.413 333.519 370.514 333.342 369.618 333.612C368.713 333.831 367.554 334.674 366.142 336.142L361.817 340.482C359.088 343.216 356.514 344.858 354.093 345.408C351.642 345.936 349.123 345.309 346.536 343.525C344.611 342.197 343.284 340.55 342.555 338.582C341.847 336.585 341.749 334.409 342.263 332.056C342.797 329.672 343.915 327.247 345.616 324.781C348.292 320.901 351.102 318.467 354.047 317.48C356.961 316.472 360.008 316.687 363.188 318.126L359.683 325.428C358.314 324.839 356.906 324.756 355.461 325.179C354.015 325.603 352.618 326.792 351.269 328.747C350.025 330.551 349.386 332.153 349.354 333.551C349.343 334.919 349.863 335.966 350.916 336.692C351.818 337.314 352.738 337.461 353.676 337.131C354.614 336.801 355.845 335.853 357.369 334.285L362.359 329.271C364.779 326.857 367.171 325.511 369.537 325.234C371.873 324.936 374.214 325.597 376.56 327.215C378.545 328.584 379.892 330.267 380.6 332.265C381.329 334.232 381.406 336.438 380.83 338.881C380.276 341.295 379.075 343.84 377.229 346.517ZM340.668 324.232L343.469 320.171L382.269 346.931L379.469 350.992L340.668 324.232Z" fill="#EAEAEA"/>
<path d="M281.166 280.393C281.029 279.497 280.192 278.881 279.296 279.018C278.4 279.155 277.784 279.992 277.921 280.888L281.166 280.393ZM289.567 296.236L288.905 297.738L289.567 296.236ZM279.543 280.64L277.921 280.888C278.719 286.118 281.444 294.446 288.905 297.738L289.567 296.236L290.23 294.734C284.398 292.162 281.926 285.378 281.166 280.393L279.543 280.64ZM289.567 296.236L288.905 297.738C297.354 301.464 300.851 301.174 304.681 301.911C308.382 302.623 313.079 304.363 324.774 312.429L325.706 311.078L326.638 309.727C314.831 301.585 309.681 299.531 305.301 298.688C301.049 297.869 298.227 298.262 290.23 294.734L289.567 296.236Z" fill="#EAEAEA"/>
</svg>
