<svg width="425" height="553" viewBox="0 0 425 553" fill="none" xmlns="http://www.w3.org/2000/svg">
<rect width="425" height="553" fill="#161616"/>
<path d="M11 328.389L58.8706 354.554L105.849 328.578V292.358C105.849 281.967 101.713 279.252 88.9252 274.248C73.752 268.31 71.1258 265.044 71.1258 256.435L46.3826 256.137C46.3826 264.76 43.7066 268.031 28.2453 273.977C15.2145 278.989 11 281.708 11 292.114V328.389Z" fill="#161616" stroke="#4141FC" stroke-width="3.15"/>
<rect x="36.5705" y="209.456" width="44.5999" height="50.5466" rx="22.3" fill="#161616" stroke="#4141FC" stroke-width="3.15"/>
<path d="M319.26 328.389L367.13 354.554L414.109 328.578V292.358C414.109 281.967 409.973 279.252 397.185 274.248C382.012 268.31 379.385 265.044 379.385 256.435L354.642 256.137C354.642 264.76 351.966 268.031 336.505 273.977C323.474 278.989 319.26 281.708 319.26 292.114V328.389Z" fill="#161616" stroke="#4141FC" stroke-width="3.15"/>
<rect x="344.83" y="209.456" width="44.5999" height="50.5466" rx="22.3" fill="#161616" stroke="#4141FC" stroke-width="3.15"/>
<path d="M223.713 344.437C223.877 348.177 224.72 351.187 227.334 353.885C229.979 356.614 234.329 358.897 241.096 361.611L242.481 362.16C248.931 364.684 252.842 366.512 255.205 368.849C257.423 371.042 258.404 373.832 258.404 378.804V414.095L212.996 439.202L166.705 413.9V378.561C166.705 373.588 167.702 370.796 169.964 368.598C172.225 366.4 175.875 364.652 181.738 362.359L182.94 361.893C190.648 358.928 195.493 356.524 198.363 353.612C201.019 350.919 201.882 347.912 202.053 344.177L223.713 344.437Z" fill="#4141FC" stroke="#4141FC" stroke-width="3.15"/>
<rect x="192.275" y="297.477" width="41.4499" height="47.3966" rx="20.725" fill="#4141FC" stroke="#4141FC" stroke-width="3.15"/>
<path d="M165.13 229.933L213 256.099L259.979 230.122V193.902C259.979 183.511 255.843 180.796 243.055 175.792C227.882 169.854 225.256 166.588 225.256 157.979L200.512 157.681C200.512 166.304 197.836 169.575 182.375 175.521C169.344 180.533 165.13 183.252 165.13 193.659V229.933Z" fill="#161616" stroke="#4141FC" stroke-width="3.15"/>
<rect x="190.7" y="111" width="44.5999" height="50.5466" rx="22.3" fill="#161616" stroke="#4141FC" stroke-width="3.15"/>
</svg>
