<svg width="425" height="553" viewBox="0 0 425 553" fill="none" xmlns="http://www.w3.org/2000/svg">
<rect width="425" height="553" fill="#161616"/>
<path d="M423 403.16L213.583 529.16L3 403.16L213.583 277.16L423 403.16Z" fill="#161616"/>
<path d="M423 403.16L213.583 529.16V541.993L423 415.993V403.16Z" fill="#161616"/>
<path d="M213.583 529.16L3 403.16V415.993L213.583 541.993V529.16Z" fill="#161616"/>
<path d="M213.583 529.16L423 403.16M213.583 529.16L3 403.16M213.583 529.16V541.993M423 403.16L213.583 277.16L3 403.16M423 403.16V415.993L213.583 541.993M3 403.16V415.993L213.583 541.993" stroke="#4141FC" stroke-width="3.66228" stroke-linecap="round"/>
<path d="M423 336.66L213.583 462.66L3 336.66L213.583 210.66L423 336.66Z" fill="#161616"/>
<path d="M423 336.66L213.583 462.66V475.493L423 349.493V336.66Z" fill="#161616"/>
<path d="M213.583 462.66L3 336.66V349.493L213.583 475.493V462.66Z" fill="#161616"/>
<path d="M213.583 462.66L423 336.66M213.583 462.66L3 336.66M213.583 462.66V475.493M423 336.66L213.583 210.66L3 336.66M423 336.66V349.493L213.583 475.493M3 336.66V349.493L213.583 475.493" stroke="#4141FC" stroke-width="3.66228" stroke-linecap="round"/>
<path d="M423 270.159L213.583 396.159L3 270.159L213.583 144.159L423 270.159Z" fill="#161616"/>
<path d="M423 270.159L213.583 396.159V408.993L423 282.993V270.159Z" fill="#161616"/>
<path d="M213.583 396.159L3 270.159V282.993L213.583 408.993V396.159Z" fill="#161616"/>
<path d="M213.583 396.159L423 270.159M213.583 396.159L3 270.159M213.583 396.159V408.993M423 270.159L213.583 144.159L3 270.159M423 270.159V282.993L213.583 408.993M3 270.159V282.993L213.583 408.993" stroke="#4141FC" stroke-width="3.66228" stroke-linecap="round"/>
<path d="M423 203.66L213.583 329.66L3 203.66L213.583 77.6597L423 203.66Z" fill="#161616"/>
<path d="M423 203.66L213.583 329.66V342.493L423 216.493V203.66Z" fill="#161616"/>
<path d="M213.583 329.66L3 203.66V216.493L213.583 342.493V329.66Z" fill="#161616"/>
<path d="M213.583 329.66L423 203.66M213.583 329.66L3 203.66M213.583 329.66V342.493M423 203.66L213.583 77.6597L3 203.66M423 203.66V216.493L213.583 342.493M3 203.66V216.493L213.583 342.493" stroke="#4141FC" stroke-width="3.66228" stroke-linecap="round"/>
<path d="M423 137.16L213.583 263.16L3 137.16L213.583 11.1597L423 137.16Z" fill="#161616"/>
<path d="M423 137.16L213.583 263.16V275.993L423 149.993V137.16Z" fill="#161616"/>
<path d="M213.583 263.16L3 137.16V149.993L213.583 275.993V263.16Z" fill="#161616"/>
<path d="M213.583 263.16L423 137.16M213.583 263.16L3 137.16M213.583 263.16V275.993M423 137.16L213.583 11.1597L3 137.16M423 137.16V149.993L213.583 275.993M3 137.16V149.993L213.583 275.993" stroke="#4141FC" stroke-width="3.66228" stroke-linecap="round"/>
<path d="M263.75 460.326L291.75 477.243L385.667 421.243L357.667 404.326L263.75 460.326Z" fill="#161616"/>
<path d="M263.75 523.326L291.75 540.243V477.243L263.75 460.326V523.326Z" fill="#161616"/>
<path d="M291.75 477.243V540.243L385.667 484.243V421.243L291.75 477.243Z" fill="#161616"/>
<path d="M291.75 540.243L263.75 523.326V460.326M291.75 540.243V477.243M291.75 540.243L385.667 484.243V421.243M291.75 477.243L263.75 460.326M291.75 477.243L385.667 421.243M263.75 460.326L357.667 404.326L385.667 421.243" stroke="#4141FC" stroke-width="3.66228"/>
<path d="M217.825 107.686V134.114L223.439 130.668L249.059 114.938L251.918 116.864L230.187 129.345L218.205 136.227H266.878V138.112H218.205L230.187 144.993L251.917 157.474L248.992 159.444L223.341 144.77L217.825 141.614V166.652H212.349V141.7L206.872 144.748L180.471 159.438L177.659 157.465L198.492 144.957L209.893 138.112H163.686V136.227H210.586L198.411 129.334L176.653 117.017L180.251 114.853L206.774 130.691L212.349 134.021V107.686H217.825Z" fill="#4141FC" stroke="#4141FC" stroke-width="7.37091" stroke-linecap="round"/>
<path d="M325 489.469L338.185 497.454L363.697 452" stroke="#4141FC" stroke-width="7.37091" stroke-linecap="round"/>
</svg>
