<svg width="425" height="553" viewBox="0 0 425 553" fill="none" xmlns="http://www.w3.org/2000/svg">
<rect width="425" height="553" fill="#161616"/>
<path d="M419.518 389.659L367.845 420.663L316.172 451.667L264.499 482.671L212.826 513.674V544.678L419.518 420.663V389.659Z" fill="#161616"/>
<path d="M212.826 544.678V513.674L186.99 498.173V513.674V529.176L212.826 544.678Z" fill="#161616"/>
<path d="M367.845 420.663L419.518 389.659L393.682 374.156L367.844 389.659L354.448 397.697L216.845 480.259L186.99 498.173L212.826 513.674L264.499 482.671L316.172 451.667L367.845 420.663Z" fill="#161616"/>
<path d="M95.1263 443.628L120.963 459.13L150.818 441.216C200.769 411.016 300.9 350.616 301.817 350.616L327.655 335.114L301.819 319.612L95.1263 443.628Z" fill="#161616"/>
<path d="M120.963 459.13V474.632V490.134L327.655 366.117V350.615V335.114L301.817 350.616C300.9 350.616 200.769 411.016 150.818 441.216L120.963 459.13Z" fill="#161616"/>
<path d="M95.1263 443.628V474.632L120.963 490.134V474.632V459.13L95.1263 443.628Z" fill="#161616"/>
<path d="M31.9703 405.161V420.663V436.165L238.663 312.149V296.647V281.145L212.825 296.648C211.907 296.648 111.777 357.048 61.8259 387.248L31.9703 405.161Z" fill="#161616"/>
<path d="M6.13379 389.659V420.663L31.9703 436.165V420.663V405.161L6.13379 389.659Z" fill="#161616"/>
<path d="M6.13379 389.659L31.9703 405.161L61.8259 387.248C111.777 357.048 211.907 296.648 212.825 296.648L238.663 281.145L212.826 265.643L6.13379 389.659Z" fill="#161616"/>
<path d="M419.518 389.659L367.845 420.663L316.172 451.667L264.499 482.671L212.826 513.674M419.518 389.659V420.663L212.826 544.678M419.518 389.659L393.682 374.156M6.13379 389.659V420.663L31.9703 436.165M6.13379 389.659L31.9703 405.161M6.13379 389.659L212.826 265.643L238.663 281.145M212.826 513.674V544.678M212.826 513.674L186.99 498.173M212.826 544.678L186.99 529.176V513.674V498.173M186.99 498.173L354.448 397.697M186.99 498.173L216.845 480.259L354.448 397.697M31.9703 405.161V420.663V436.165M31.9703 405.161L61.8259 387.248C111.777 357.048 211.907 296.648 212.825 296.648L238.663 281.145M31.9703 436.165L238.663 312.149V296.647V281.145M393.682 374.156L354.448 397.697M393.682 374.156L367.844 389.659L354.448 397.697M95.1263 443.628V474.632L120.963 490.134M95.1263 443.628L120.963 459.13M95.1263 443.628L301.819 319.612L327.655 335.114M120.963 459.13V474.632V490.134M120.963 459.13L150.818 441.216C200.769 411.016 300.9 350.616 301.817 350.616L327.655 335.114M120.963 490.134L327.655 366.117V350.615V335.114" stroke="#EAEAEA" stroke-width="4.59316"/>
<path d="M212.826 505.636L6.13379 381.621L212.826 258.179L419.518 381.62L212.826 505.636Z" fill="#161616"/>
<path d="M212.826 513.674L419.518 389.658V381.62L212.826 505.636V513.674Z" fill="#161616"/>
<path d="M6.13379 389.659L212.826 513.674V505.636L6.13379 381.621V389.659Z" fill="#161616"/>
<path d="M212.826 513.674L6.13379 389.659V381.621M212.826 513.674L419.518 389.658M212.826 513.674V505.636M419.518 389.658C419.518 387.362 419.518 382.539 419.518 381.62M419.518 389.658V381.62M6.13379 381.621L212.826 505.636M6.13379 381.621L212.826 258.179L419.518 381.62M212.826 505.636L419.518 381.62" stroke="#EAEAEA" stroke-width="4.59316"/>
<path d="M161.153 226.027L212.826 257.031L264.499 226.027L212.826 195.023L161.153 226.027Z" fill="#161616"/>
<path d="M161.153 288.034L212.826 319.038V257.031L161.153 226.027V288.034Z" fill="#161616"/>
<path d="M212.826 257.031V319.038L264.499 288.034V226.027L212.826 257.031Z" fill="#161616"/>
<path d="M212.826 319.038L161.153 288.034V226.027M212.826 319.038V257.031M212.826 319.038L264.499 288.034V226.027M212.826 257.031L161.153 226.027M212.826 257.031L264.499 226.027M161.153 226.027L212.826 195.023L264.499 226.027" stroke="#EAEAEA" stroke-width="4.59316"/>
<path d="M190.021 255.877L190.021 266.441L196.724 259.476L197.242 258.938L197.76 259.476L200.511 262.335L200.989 262.831L200.513 263.329L193.796 270.365L203.962 270.365L203.962 275.897L193.805 275.897L200.511 282.865L200.995 283.37L200.505 283.868L197.692 286.728L197.173 287.254L196.661 286.722L190.021 279.82L190.021 290.398L189.29 290.386L185.351 290.32L184.644 290.309L184.644 279.831L178.005 286.784L177.482 287.333L176.962 286.78L174.211 283.857L173.742 283.358L174.217 282.865L180.922 275.897L170.702 275.897L170.702 270.365L180.932 270.365L174.215 263.329L173.739 262.831L174.217 262.335L176.967 259.476L177.488 258.936L178.005 259.478L184.644 266.431L184.644 255.877L190.021 255.877Z" fill="#EAEAEA" stroke="#EAEAEA" stroke-width="1.438"/>
<path d="M212.826 257.031L264.499 288.034L316.172 257.031L264.499 226.027L212.826 257.031Z" fill="#161616"/>
<path d="M212.826 319.038L264.499 350.042V288.034L212.826 257.031V319.038Z" fill="#161616"/>
<path d="M264.499 288.034V350.042L316.172 319.038V257.031L264.499 288.034Z" fill="#161616"/>
<path d="M264.499 350.042L212.826 319.038V257.031M264.499 350.042V288.034M264.499 350.042L316.172 319.038V257.031M264.499 288.034L212.826 257.031M264.499 288.034L316.172 257.031M212.826 257.031L264.499 226.027L316.172 257.031" stroke="#EAEAEA" stroke-width="4.59316"/>
<path d="M241.694 286.881L241.694 297.445L248.397 290.479L248.914 289.941L249.433 290.479L252.184 293.339L252.661 293.835L252.186 294.333L245.469 301.369L255.635 301.369L255.635 306.9L245.478 306.9L252.184 313.869L252.668 314.374L252.178 314.872L249.365 317.731L248.846 318.258L248.334 317.725L241.694 310.824L241.694 321.401L240.963 321.39L237.024 321.324L236.317 321.312L236.317 310.835L229.678 317.788L229.155 318.337L228.635 317.784L225.884 314.86L225.415 314.362L225.89 313.869L232.595 306.9L222.375 306.9L222.375 301.369L232.605 301.369L225.888 294.333L225.411 293.835L225.89 293.339L228.64 290.479L229.161 289.939L229.678 290.481L236.317 297.434L236.317 286.881L241.694 286.881Z" fill="#EAEAEA" stroke="#EAEAEA" stroke-width="1.438"/>
<path d="M264.499 288.034L316.172 319.038L367.845 288.034L316.172 257.031L264.499 288.034Z" fill="#161616"/>
<path d="M264.499 350.042L316.172 381.046V319.038L264.499 288.034V350.042Z" fill="#161616"/>
<path d="M316.172 319.038V381.046L367.845 350.042V288.034L316.172 319.038Z" fill="#161616"/>
<path d="M316.172 381.046L264.499 350.042V288.034M316.172 381.046V319.038M316.172 381.046L367.845 350.042V288.034M316.172 319.038L264.499 288.034M316.172 319.038L367.845 288.034M264.499 288.034L316.172 257.031L367.845 288.034" stroke="#EAEAEA" stroke-width="4.59316"/>
<path d="M293.367 317.885L293.367 328.449L300.07 321.483L300.588 320.945L301.106 321.483L303.857 324.343L304.335 324.839L303.859 325.337L297.142 332.373L307.308 332.373L307.308 337.904L297.151 337.904L303.857 344.873L304.342 345.378L303.851 345.876L301.038 348.735L300.519 349.262L300.008 348.729L293.367 341.828L293.367 352.405L292.636 352.393L288.697 352.328L287.99 352.316L287.99 341.839L281.351 348.792L280.828 349.341L280.308 348.788L277.557 345.864L277.089 345.366L277.563 344.873L284.268 337.904L274.049 337.904L274.049 332.373L284.278 332.373L277.561 325.337L277.085 324.839L277.563 324.343L280.313 321.483L280.834 320.943L281.351 321.485L287.99 328.438L287.99 317.885L293.367 317.885Z" fill="#EAEAEA" stroke="#EAEAEA" stroke-width="1.438"/>
<path d="M316.172 319.038L367.845 350.042L419.518 319.038L367.845 288.034L316.172 319.038Z" fill="#161616"/>
<path d="M316.172 381.046L367.845 412.05V350.042L316.172 319.038V381.046Z" fill="#161616"/>
<path d="M367.845 350.042V412.05L419.518 381.046V319.038L367.845 350.042Z" fill="#161616"/>
<path d="M367.845 412.05L316.172 381.046V319.038M367.845 412.05V350.042M367.845 412.05L419.518 381.046V319.038M367.845 350.042L316.172 319.038M367.845 350.042L419.518 319.038M316.172 319.038L367.845 288.034L419.518 319.038" stroke="#EAEAEA" stroke-width="4.59316"/>
<path d="M345.04 348.889L345.04 359.453L351.743 352.488L352.261 351.949L352.779 352.488L355.53 355.347L356.008 355.843L355.532 356.341L348.815 363.377L358.981 363.377L358.981 368.908L348.824 368.908L355.53 375.877L356.014 376.382L355.524 376.88L352.711 379.74L352.192 380.266L351.68 379.734L345.04 372.832L345.04 383.409L344.309 383.398L340.37 383.332L339.663 383.321L339.663 372.843L333.024 379.796L332.501 380.345L331.981 379.792L329.23 376.868L328.762 376.37L329.236 375.877L335.941 368.908L325.721 368.908L325.721 363.377L335.951 363.377L329.234 356.341L328.758 355.843L329.236 355.347L331.986 352.488L332.507 351.948L333.024 352.49L339.663 359.443L339.663 348.889L345.04 348.889Z" fill="#EAEAEA" stroke="#EAEAEA" stroke-width="1.438"/>
<path d="M161.153 164.019L212.826 195.023L264.499 164.019L212.826 133.015L161.153 164.019Z" fill="#161616"/>
<path d="M161.153 226.027L212.826 257.031V195.023L161.153 164.019V226.027Z" fill="#161616"/>
<path d="M212.826 195.023V257.031L264.499 226.027V164.019L212.826 195.023Z" fill="#161616"/>
<path d="M212.826 257.031L161.153 226.027V164.019M212.826 257.031V195.023M212.826 257.031L264.499 226.027V164.019M212.826 195.023L161.153 164.019M212.826 195.023L264.499 164.019M161.153 164.019L212.826 133.015L264.499 164.019" stroke="#EAEAEA" stroke-width="4.59316"/>
<path d="M190.021 193.869L190.021 204.434L196.724 197.468L197.242 196.93L197.76 197.468L200.511 200.327L200.989 200.823L200.513 201.321L193.796 208.358L203.962 208.358L203.962 213.889L193.805 213.889L200.511 220.858L200.995 221.362L200.505 221.86L197.692 224.72L197.173 225.246L196.661 224.714L190.021 217.813L190.021 228.39L189.29 228.378L185.351 228.313L184.644 228.301L184.644 217.823L178.005 224.777L177.482 225.325L176.962 224.773L174.211 221.849L173.742 221.351L174.217 220.858L180.922 213.889L170.702 213.889L170.702 208.358L180.932 208.358L174.215 201.321L173.739 200.823L174.217 200.327L176.967 197.468L177.488 196.928L178.005 197.47L184.644 204.423L184.644 193.869L190.021 193.869Z" fill="#EAEAEA" stroke="#EAEAEA" stroke-width="1.438"/>
<path d="M212.826 195.023L264.499 226.027L316.172 195.023L264.499 164.019L212.826 195.023Z" fill="#161616"/>
<path d="M212.826 257.03L264.499 288.034V226.027L212.826 195.023V257.03Z" fill="#161616"/>
<path d="M264.499 226.027V288.034L316.172 257.03V195.023L264.499 226.027Z" fill="#161616"/>
<path d="M264.499 288.034L212.826 257.03V195.023M264.499 288.034V226.027M264.499 288.034L316.172 257.03V195.023M264.499 226.027L212.826 195.023M264.499 226.027L316.172 195.023M212.826 195.023L264.499 164.019L316.172 195.023" stroke="#EAEAEA" stroke-width="4.59316"/>
<path d="M241.694 224.873L241.694 235.437L248.397 228.472L248.914 227.934L249.433 228.472L252.184 231.331L252.661 231.827L252.186 232.325L245.469 239.361L255.635 239.361L255.635 244.893L245.478 244.893L252.184 251.861L252.668 252.366L252.178 252.864L249.365 255.724L248.846 256.25L248.334 255.718L241.694 248.816L241.694 259.394L240.963 259.382L237.024 259.316L236.317 259.305L236.317 248.827L229.678 255.78L229.155 256.329L228.635 255.776L225.884 252.853L225.415 252.354L225.89 251.861L232.595 244.893L222.375 244.893L222.375 239.361L232.605 239.361L225.888 232.325L225.411 231.827L225.89 231.331L228.64 228.472L229.161 227.932L229.678 228.474L236.317 235.427L236.317 224.873L241.694 224.873Z" fill="#EAEAEA" stroke="#EAEAEA" stroke-width="1.438"/>
<path d="M264.499 226.027L316.172 257.031L367.845 226.027L316.172 195.023L264.499 226.027Z" fill="#161616"/>
<path d="M264.499 288.034L316.172 319.038V257.031L264.499 226.027V288.034Z" fill="#161616"/>
<path d="M316.172 257.031V319.038L367.845 288.034V226.027L316.172 257.031Z" fill="#161616"/>
<path d="M316.172 319.038L264.499 288.034V226.027M316.172 319.038V257.031M316.172 319.038L367.845 288.034V226.027M316.172 257.031L264.499 226.027M316.172 257.031L367.845 226.027M264.499 226.027L316.172 195.023L367.845 226.027" stroke="#EAEAEA" stroke-width="4.59316"/>
<path d="M293.367 255.877L293.367 266.441L300.07 259.476L300.588 258.937L301.106 259.476L303.857 262.335L304.335 262.831L303.859 263.329L297.142 270.365L307.308 270.365L307.308 275.896L297.151 275.896L303.857 282.865L304.342 283.37L303.851 283.868L301.038 286.728L300.519 287.254L300.008 286.722L293.367 279.82L293.367 290.397L292.636 290.386L288.697 290.32L287.99 290.309L287.99 279.831L281.351 286.784L280.828 287.333L280.308 286.78L277.557 283.856L277.089 283.358L277.563 282.865L284.268 275.896L274.049 275.896L274.049 270.365L284.278 270.365L277.561 263.329L277.085 262.831L277.563 262.335L280.313 259.476L280.834 258.936L281.351 259.478L287.99 266.431L287.99 255.877L293.367 255.877Z" fill="#EAEAEA" stroke="#EAEAEA" stroke-width="1.438"/>
<path d="M316.172 257.03L367.845 288.034L419.518 257.03L367.845 226.026L316.172 257.03Z" fill="#161616"/>
<path d="M316.172 319.038L367.845 350.042V288.034L316.172 257.03V319.038Z" fill="#161616"/>
<path d="M367.845 288.034V350.042L419.518 319.038V257.03L367.845 288.034Z" fill="#161616"/>
<path d="M367.845 350.042L316.172 319.038V257.03M367.845 350.042V288.034M367.845 350.042L419.518 319.038V257.03M367.845 288.034L316.172 257.03M367.845 288.034L419.518 257.03M316.172 257.03L367.845 226.026L419.518 257.03" stroke="#EAEAEA" stroke-width="4.59316"/>
<path d="M345.04 286.88L345.04 297.445L351.743 290.479L352.261 289.941L352.779 290.479L355.53 293.338L356.008 293.834L355.532 294.333L348.815 301.369L358.981 301.369L358.981 306.9L348.824 306.9L355.53 313.869L356.014 314.374L355.524 314.872L352.711 317.731L352.192 318.257L351.68 317.725L345.04 310.824L345.04 321.401L344.309 321.389L340.37 321.324L339.663 321.312L339.663 310.834L333.024 317.788L332.501 318.336L331.981 317.784L329.23 314.86L328.762 314.362L329.236 313.869L335.941 306.9L325.721 306.9L325.721 301.369L335.951 301.369L329.234 294.333L328.758 293.834L329.236 293.338L331.986 290.479L332.507 289.939L333.024 290.481L339.663 297.434L339.663 286.88L345.04 286.88Z" fill="#EAEAEA" stroke="#EAEAEA" stroke-width="1.438"/>
<path d="M161.153 102.012L212.826 133.015L264.499 102.012L212.826 71.0078L161.153 102.012Z" fill="#161616"/>
<path d="M161.153 164.019L212.826 195.023V133.015L161.153 102.012V164.019Z" fill="#161616"/>
<path d="M212.826 133.015V195.023L264.499 164.019V102.012L212.826 133.015Z" fill="#161616"/>
<path d="M212.826 195.023L161.153 164.019V102.012M212.826 195.023V133.015M212.826 195.023L264.499 164.019V102.012M212.826 133.015L161.153 102.012M212.826 133.015L264.499 102.012M161.153 102.012L212.826 71.0078L264.499 102.012" stroke="#EAEAEA" stroke-width="4.59316"/>
<path d="M190.021 131.862L190.021 142.426L196.724 135.461L197.242 134.922L197.76 135.461L200.511 138.32L200.989 138.816L200.513 139.314L193.796 146.35L203.962 146.35L203.962 151.881L193.805 151.881L200.511 158.85L200.995 159.355L200.505 159.853L197.692 162.712L197.173 163.239L196.661 162.707L190.021 155.805L190.021 166.382L189.29 166.371L185.351 166.305L184.644 166.294L184.644 155.816L178.005 162.769L177.482 163.318L176.962 162.765L174.211 159.841L173.742 159.343L174.217 158.85L180.922 151.881L170.702 151.881L170.702 146.35L180.932 146.35L174.215 139.314L173.739 138.816L174.217 138.32L176.967 135.461L177.488 134.921L178.005 135.462L184.644 142.416L184.644 131.862L190.021 131.862Z" fill="#EAEAEA" stroke="#EAEAEA" stroke-width="1.438"/>
<path d="M212.826 133.015L264.499 164.019L316.172 133.015L264.499 102.012L212.826 133.015Z" fill="#161616"/>
<path d="M212.826 195.023L264.499 226.027V164.019L212.826 133.015V195.023Z" fill="#161616"/>
<path d="M264.499 164.019V226.027L316.172 195.023V133.015L264.499 164.019Z" fill="#161616"/>
<path d="M264.499 226.027L212.826 195.023V133.015M264.499 226.027V164.019M264.499 226.027L316.172 195.023V133.015M264.499 164.019L212.826 133.015M264.499 164.019L316.172 133.015M212.826 133.015L264.499 102.012L316.172 133.015" stroke="#EAEAEA" stroke-width="4.59316"/>
<path d="M241.694 162.866L241.694 173.43L248.397 166.464L248.914 165.926L249.433 166.464L252.184 169.324L252.661 169.82L252.186 170.318L245.469 177.354L255.635 177.354L255.635 182.885L245.478 182.885L252.184 189.854L252.668 190.359L252.178 190.857L249.365 193.716L248.846 194.243L248.334 193.71L241.694 186.809L241.694 197.386L240.963 197.375L237.024 197.309L236.317 197.297L236.317 186.82L229.678 193.773L229.155 194.322L228.635 193.769L225.884 190.845L225.415 190.347L225.89 189.854L232.595 182.885L222.375 182.885L222.375 177.354L232.605 177.354L225.888 170.318L225.411 169.82L225.89 169.324L228.64 166.464L229.161 165.924L229.678 166.466L236.317 173.419L236.317 162.866L241.694 162.866Z" fill="#EAEAEA" stroke="#EAEAEA" stroke-width="1.438"/>
<path d="M264.499 164.019L316.172 195.023L367.845 164.019L316.172 133.015L264.499 164.019Z" fill="#161616"/>
<path d="M264.499 226.027L316.172 257.031V195.023L264.499 164.019V226.027Z" fill="#161616"/>
<path d="M316.172 195.023V257.031L367.845 226.027V164.019L316.172 195.023Z" fill="#161616"/>
<path d="M316.172 257.031L264.499 226.027V164.019M316.172 257.031V195.023M316.172 257.031L367.845 226.027V164.019M316.172 195.023L264.499 164.019M316.172 195.023L367.845 164.019M264.499 164.019L316.172 133.015L367.845 164.019" stroke="#EAEAEA" stroke-width="4.59316"/>
<path d="M293.367 193.87L293.367 204.434L300.07 197.468L300.588 196.93L301.106 197.468L303.857 200.328L304.335 200.824L303.859 201.322L297.142 208.358L307.308 208.358L307.308 213.889L297.151 213.889L303.857 220.858L304.342 221.363L303.851 221.861L301.038 224.72L300.519 225.247L300.008 224.714L293.367 217.813L293.367 228.39L292.636 228.378L288.697 228.313L287.99 228.301L287.99 217.824L281.351 224.777L280.828 225.326L280.308 224.773L277.557 221.849L277.089 221.351L277.563 220.858L284.268 213.889L274.049 213.889L274.049 208.358L284.278 208.358L277.561 201.322L277.085 200.824L277.563 200.328L280.313 197.468L280.834 196.928L281.351 197.47L287.99 204.423L287.99 193.87L293.367 193.87Z" fill="#EAEAEA" stroke="#EAEAEA" stroke-width="1.438"/>
<path d="M316.172 195.023L367.845 226.027L419.518 195.023L367.845 164.019L316.172 195.023Z" fill="#161616"/>
<path d="M316.172 257.031L367.845 288.035V226.027L316.172 195.023V257.031Z" fill="#161616"/>
<path d="M367.845 226.027V288.035L419.518 257.031V195.023L367.845 226.027Z" fill="#161616"/>
<path d="M367.845 288.035L316.172 257.031V195.023M367.845 288.035V226.027M367.845 288.035L419.518 257.031V195.023M367.845 226.027L316.172 195.023M367.845 226.027L419.518 195.023M316.172 195.023L367.845 164.019L419.518 195.023" stroke="#EAEAEA" stroke-width="4.59316"/>
<path d="M345.04 224.873L345.04 235.438L351.743 228.472L352.261 227.934L352.779 228.472L355.53 231.331L356.008 231.828L355.532 232.326L348.815 239.362L358.981 239.362L358.981 244.893L348.824 244.893L355.53 251.862L356.014 252.367L355.524 252.865L352.711 255.724L352.192 256.25L351.68 255.718L345.04 248.817L345.04 259.394L344.309 259.382L340.37 259.317L339.663 259.305L339.663 248.828L333.024 255.781L332.501 256.33L331.981 255.777L329.23 252.853L328.762 252.355L329.236 251.862L335.941 244.893L325.721 244.893L325.721 239.362L335.951 239.362L329.234 232.326L328.758 231.828L329.236 231.331L331.986 228.472L332.507 227.932L333.024 228.474L339.663 235.427L339.663 224.873L345.04 224.873Z" fill="#EAEAEA" stroke="#EAEAEA" stroke-width="1.438"/>
<path d="M161.153 40.0038L212.826 71.0077L264.499 40.0038L212.826 8.99997L161.153 40.0038Z" fill="#161616"/>
<path d="M161.153 102.011L212.826 133.015V71.0077L161.153 40.0038V102.011Z" fill="#161616"/>
<path d="M212.826 71.0077V133.015L264.499 102.011V40.0038L212.826 71.0077Z" fill="#161616"/>
<path d="M212.826 133.015L161.153 102.011V40.0038M212.826 133.015V71.0077M212.826 133.015L264.499 102.011V40.0038M212.826 71.0077L161.153 40.0038M212.826 71.0077L264.499 40.0038M161.153 40.0038L212.826 8.99997L264.499 40.0038" stroke="#EAEAEA" stroke-width="4.59316"/>
<path d="M190.021 69.8542L190.021 80.4186L196.724 73.4528L197.242 72.9147L197.76 73.4528L200.511 76.3122L200.989 76.8083L200.513 77.3063L193.796 84.3425L203.962 84.3425L203.962 89.8737L193.805 89.8737L200.511 96.8425L200.995 97.3473L200.505 97.8454L197.692 100.705L197.173 101.231L196.661 100.699L190.021 93.7975L190.021 104.375L189.29 104.363L185.351 104.298L184.644 104.286L184.644 93.8083L178.005 100.761L177.482 101.31L176.962 100.758L174.211 97.8337L173.743 97.3356L174.217 96.8425L180.922 89.8737L170.703 89.8737L170.703 84.3425L180.932 84.3425L174.215 77.3063L173.739 76.8083L174.217 76.3122L176.967 73.4528L177.488 72.9128L178.005 73.4548L184.644 80.4079L184.644 69.8542L190.021 69.8542Z" fill="#EAEAEA" stroke="#EAEAEA" stroke-width="1.438"/>
<path d="M212.826 71.0077L264.499 102.012L316.172 71.0077L264.499 40.0038L212.826 71.0077Z" fill="#161616"/>
<path d="M212.826 133.015L264.499 164.019V102.012L212.826 71.0077V133.015Z" fill="#161616"/>
<path d="M264.499 102.012V164.019L316.172 133.015V71.0077L264.499 102.012Z" fill="#161616"/>
<path d="M264.499 164.019L212.826 133.015V71.0077M264.499 164.019V102.012M264.499 164.019L316.172 133.015V71.0077M264.499 102.012L212.826 71.0077M264.499 102.012L316.172 71.0077M212.826 71.0077L264.499 40.0038L316.172 71.0077" stroke="#EAEAEA" stroke-width="4.59316"/>
<path d="M241.694 100.858L241.694 111.422L248.397 104.457L248.915 103.919L249.433 104.457L252.184 107.316L252.662 107.812L252.186 108.31L245.469 115.346L255.635 115.346L255.635 120.878L245.478 120.878L252.184 127.846L252.669 128.351L252.178 128.849L249.365 131.709L248.846 132.235L248.335 131.703L241.694 124.801L241.694 135.379L240.963 135.367L237.024 135.301L236.317 135.29L236.317 124.812L229.678 131.765L229.155 132.314L228.635 131.761L225.884 128.838L225.416 128.339L225.89 127.846L232.595 120.878L222.376 120.878L222.376 115.346L232.605 115.346L225.888 108.31L225.412 107.812L225.89 107.316L228.64 104.457L229.161 103.917L229.678 104.459L236.317 111.412L236.317 100.858L241.694 100.858Z" fill="#EAEAEA" stroke="#EAEAEA" stroke-width="1.438"/>
<path d="M264.499 102.012L316.172 133.015L367.845 102.012L316.172 71.0078L264.499 102.012Z" fill="#161616"/>
<path d="M264.499 164.019L316.172 195.023V133.015L264.499 102.012V164.019Z" fill="#161616"/>
<path d="M316.172 133.015V195.023L367.845 164.019V102.012L316.172 133.015Z" fill="#161616"/>
<path d="M316.172 195.023L264.499 164.019V102.012M316.172 195.023V133.015M316.172 195.023L367.845 164.019V102.012M316.172 133.015L264.499 102.012M316.172 133.015L367.845 102.012M264.499 102.012L316.172 71.0078L367.845 102.012" stroke="#EAEAEA" stroke-width="4.59316"/>
<path d="M293.367 131.862L293.367 142.426L300.07 135.461L300.588 134.922L301.106 135.461L303.857 138.32L304.335 138.816L303.859 139.314L297.142 146.35L307.308 146.35L307.308 151.881L297.151 151.881L303.857 158.85L304.342 159.355L303.851 159.853L301.038 162.712L300.519 163.239L300.008 162.707L293.367 155.805L293.367 166.382L292.636 166.371L288.697 166.305L287.99 166.294L287.99 155.816L281.351 162.769L280.828 163.318L280.308 162.765L277.557 159.841L277.089 159.343L277.563 158.85L284.268 151.881L274.049 151.881L274.049 146.35L284.278 146.35L277.561 139.314L277.085 138.816L277.563 138.32L280.313 135.461L280.834 134.921L281.351 135.462L287.99 142.416L287.99 131.862L293.367 131.862Z" fill="#EAEAEA" stroke="#EAEAEA" stroke-width="1.438"/>
<path d="M316.172 133.015L367.845 164.019L419.518 133.015L367.845 102.012L316.172 133.015Z" fill="#161616"/>
<path d="M316.172 195.023L367.845 226.027V164.019L316.172 133.015V195.023Z" fill="#161616"/>
<path d="M367.845 164.019V226.027L419.518 195.023V133.015L367.845 164.019Z" fill="#161616"/>
<path d="M367.845 226.027L316.172 195.023V133.015M367.845 226.027V164.019M367.845 226.027L419.518 195.023V133.015M367.845 164.019L316.172 133.015M367.845 164.019L419.518 133.015M316.172 133.015L367.845 102.012L419.518 133.015" stroke="#EAEAEA" stroke-width="4.59316"/>
<path d="M345.04 162.866L345.04 173.43L351.743 166.464L352.261 165.926L352.779 166.464L355.53 169.324L356.008 169.82L355.532 170.318L348.815 177.354L358.981 177.354L358.981 182.885L348.824 182.885L355.53 189.854L356.014 190.359L355.524 190.857L352.711 193.716L352.192 194.243L351.68 193.711L345.04 186.809L345.04 197.386L344.309 197.375L340.37 197.309L339.663 197.297L339.663 186.82L333.024 193.773L332.501 194.322L331.981 193.769L329.23 190.845L328.762 190.347L329.236 189.854L335.941 182.885L325.721 182.885L325.721 177.354L335.951 177.354L329.234 170.318L328.758 169.82L329.236 169.324L331.986 166.464L332.507 165.924L333.024 166.466L339.663 173.42L339.663 162.866L345.04 162.866Z" fill="#EAEAEA" stroke="#EAEAEA" stroke-width="1.438"/>
<path d="M109.48 257.031L161.153 288.035L212.826 257.031L161.153 226.027L109.48 257.031Z" fill="#161616"/>
<path d="M109.48 319.038L161.153 350.042V288.035L109.48 257.031V319.038Z" fill="#161616"/>
<path d="M161.153 288.035V350.042L212.826 319.038V257.031L161.153 288.035Z" fill="#161616"/>
<path d="M161.153 350.042L109.48 319.038V257.031M161.153 350.042V288.035M161.153 350.042L212.826 319.038V257.031M161.153 288.035L109.48 257.031M161.153 288.035L212.826 257.031M109.48 257.031L161.153 226.027L212.826 257.031" stroke="#EAEAEA" stroke-width="4.59316"/>
<path d="M138.348 286.881L138.348 297.445L145.051 290.48L145.568 289.941L146.087 290.48L148.838 293.339L149.315 293.835L148.84 294.333L142.123 301.369L152.289 301.369L152.289 306.9L142.132 306.9L148.838 313.869L149.322 314.374L148.832 314.872L146.018 317.732L145.5 318.258L144.988 317.726L138.348 310.824L138.348 321.401L137.617 321.39L133.678 321.324L132.971 321.313L132.971 310.835L126.332 317.788L125.809 318.337L125.289 317.784L122.538 314.86L122.069 314.362L122.544 313.869L129.249 306.9L119.029 306.9L119.029 301.369L129.259 301.369L122.542 294.333L122.065 293.835L122.544 293.339L125.294 290.48L125.814 289.94L126.332 290.482L132.971 297.435L132.971 286.881L138.348 286.881Z" fill="#EAEAEA" stroke="#EAEAEA" stroke-width="1.438"/>
<path d="M161.153 288.034L212.826 319.038L264.499 288.034L212.826 257.031L161.153 288.034Z" fill="#161616"/>
<path d="M161.153 350.042L212.826 381.046V319.038L161.153 288.034V350.042Z" fill="#161616"/>
<path d="M212.826 319.038V381.046L264.499 350.042V288.034L212.826 319.038Z" fill="#161616"/>
<path d="M212.826 381.046L161.153 350.042V288.034M212.826 381.046V319.038M212.826 381.046L264.499 350.042V288.034M212.826 319.038L161.153 288.034M212.826 319.038L264.499 288.034M161.153 288.034L212.826 257.031L264.499 288.034" stroke="#EAEAEA" stroke-width="4.59316"/>
<path d="M190.021 317.885L190.021 328.449L196.724 321.483L197.241 320.945L197.76 321.483L200.511 324.343L200.988 324.839L200.513 325.337L193.796 332.373L203.962 332.373L203.962 337.904L193.805 337.904L200.511 344.873L200.995 345.378L200.505 345.876L197.692 348.735L197.173 349.262L196.661 348.729L190.021 341.828L190.021 352.405L189.29 352.393L185.351 352.328L184.644 352.316L184.644 341.839L178.005 348.792L177.482 349.341L176.962 348.788L174.211 345.864L173.742 345.366L174.217 344.873L180.922 337.904L170.702 337.904L170.702 332.373L180.932 332.373L174.215 325.337L173.738 324.839L174.217 324.343L176.967 321.483L177.487 320.943L178.005 321.485L184.644 328.438L184.644 317.885L190.021 317.885Z" fill="#EAEAEA" stroke="#EAEAEA" stroke-width="1.438"/>
<path d="M212.826 319.038L264.499 350.042L316.172 319.038L264.499 288.034L212.826 319.038Z" fill="#161616"/>
<path d="M212.826 381.046L264.499 412.05V350.042L212.826 319.038V381.046Z" fill="#161616"/>
<path d="M264.499 350.042V412.05L316.172 381.046V319.038L264.499 350.042Z" fill="#161616"/>
<path d="M264.499 412.05L212.826 381.046V319.038M264.499 412.05V350.042M264.499 412.05L316.172 381.046V319.038M264.499 350.042L212.826 319.038M264.499 350.042L316.172 319.038M212.826 319.038L264.499 288.034L316.172 319.038" stroke="#EAEAEA" stroke-width="4.59316"/>
<path d="M241.694 348.889L241.694 359.453L248.397 352.488L248.914 351.949L249.433 352.488L252.184 355.347L252.661 355.843L252.186 356.341L245.469 363.377L255.635 363.377L255.635 368.908L245.478 368.908L252.184 375.877L252.668 376.382L252.178 376.88L249.365 379.74L248.846 380.266L248.334 379.734L241.694 372.832L241.694 383.409L240.963 383.398L237.024 383.332L236.317 383.321L236.317 372.843L229.678 379.796L229.155 380.345L228.635 379.792L225.884 376.868L225.415 376.37L225.89 375.877L232.595 368.908L222.375 368.908L222.375 363.377L232.605 363.377L225.888 356.341L225.411 355.843L225.89 355.347L228.64 352.488L229.161 351.948L229.678 352.49L236.317 359.443L236.317 348.889L241.694 348.889Z" fill="#EAEAEA" stroke="#EAEAEA" stroke-width="1.438"/>
<path d="M264.499 350.042L316.172 381.046L367.845 350.042L316.172 319.038L264.499 350.042Z" fill="#161616"/>
<path d="M264.499 412.049L316.172 443.053V381.046L264.499 350.042V412.049Z" fill="#161616"/>
<path d="M316.172 381.046V443.053L367.845 412.049V350.042L316.172 381.046Z" fill="#161616"/>
<path d="M316.172 443.053L264.499 412.049V350.042M316.172 443.053V381.046M316.172 443.053L367.845 412.049V350.042M316.172 381.046L264.499 350.042M316.172 381.046L367.845 350.042M264.499 350.042L316.172 319.038L367.845 350.042" stroke="#EAEAEA" stroke-width="4.59316"/>
<path d="M293.367 379.892L293.367 390.457L300.07 383.491L300.588 382.953L301.106 383.491L303.857 386.35L304.335 386.846L303.859 387.344L297.142 394.381L307.308 394.381L307.308 399.912L297.151 399.912L303.857 406.881L304.341 407.386L303.851 407.884L301.038 410.743L300.519 411.269L300.007 410.737L293.367 403.836L293.367 414.413L292.636 414.401L288.697 414.336L287.99 414.324L287.99 403.846L281.351 410.8L280.828 411.348L280.308 410.796L277.557 407.872L277.088 407.374L277.563 406.881L284.268 399.912L274.048 399.912L274.048 394.381L284.278 394.381L277.561 387.344L277.085 386.846L277.563 386.35L280.313 383.491L280.834 382.951L281.351 383.493L287.99 390.446L287.99 379.892L293.367 379.892Z" fill="#EAEAEA" stroke="#EAEAEA" stroke-width="1.438"/>
<path d="M109.48 195.023L161.153 226.027L212.826 195.023L161.153 164.019L109.48 195.023Z" fill="#161616"/>
<path d="M109.48 257.031L161.153 288.034V226.027L109.48 195.023V257.031Z" fill="#161616"/>
<path d="M161.153 226.027V288.034L212.826 257.031V195.023L161.153 226.027Z" fill="#161616"/>
<path d="M161.153 288.034L109.48 257.031V195.023M161.153 288.034V226.027M161.153 288.034L212.826 257.031V195.023M161.153 226.027L109.48 195.023M161.153 226.027L212.826 195.023M109.48 195.023L161.153 164.019L212.826 195.023" stroke="#EAEAEA" stroke-width="4.59316"/>
<path d="M138.348 224.873L138.348 235.438L145.051 228.472L145.568 227.934L146.087 228.472L148.838 231.331L149.315 231.827L148.84 232.325L142.123 239.361L152.289 239.361L152.289 244.893L142.132 244.893L148.838 251.861L149.322 252.366L148.832 252.864L146.018 255.724L145.5 256.25L144.988 255.718L138.348 248.816L138.348 259.394L137.617 259.382L133.678 259.316L132.971 259.305L132.971 248.827L126.332 255.78L125.809 256.329L125.289 255.776L122.538 252.853L122.069 252.355L122.544 251.861L129.249 244.893L119.029 244.893L119.029 239.361L129.259 239.361L122.542 232.325L122.065 231.827L122.544 231.331L125.294 228.472L125.814 227.932L126.332 228.474L132.971 235.427L132.971 224.873L138.348 224.873Z" fill="#EAEAEA" stroke="#EAEAEA" stroke-width="1.438"/>
<path d="M161.153 226.027L212.826 257.03L264.499 226.027L212.826 195.023L161.153 226.027Z" fill="#161616"/>
<path d="M161.153 288.034L212.826 319.038V257.03L161.153 226.027V288.034Z" fill="#161616"/>
<path d="M212.826 257.03V319.038L264.499 288.034V226.027L212.826 257.03Z" fill="#161616"/>
<path d="M212.826 319.038L161.153 288.034V226.027M212.826 319.038V257.03M212.826 319.038L264.499 288.034V226.027M212.826 257.03L161.153 226.027M212.826 257.03L264.499 226.027M161.153 226.027L212.826 195.023L264.499 226.027" stroke="#EAEAEA" stroke-width="4.59316"/>
<path d="M190.021 255.877L190.021 266.441L196.724 259.475L197.241 258.937L197.76 259.475L200.511 262.335L200.988 262.831L200.513 263.329L193.796 270.365L203.962 270.365L203.962 275.896L193.805 275.896L200.511 282.865L200.995 283.37L200.505 283.868L197.692 286.727L197.173 287.254L196.661 286.722L190.021 279.82L190.021 290.397L189.29 290.386L185.351 290.32L184.644 290.308L184.644 279.831L178.005 286.784L177.482 287.333L176.962 286.78L174.211 283.856L173.742 283.358L174.217 282.865L180.922 275.896L170.702 275.896L170.702 270.365L180.932 270.365L174.215 263.329L173.738 262.831L174.217 262.335L176.967 259.475L177.487 258.935L178.005 259.477L184.644 266.431L184.644 255.877L190.021 255.877Z" fill="#EAEAEA" stroke="#EAEAEA" stroke-width="1.438"/>
<path d="M212.826 257.031L264.499 288.034L316.172 257.031L264.499 226.027L212.826 257.031Z" fill="#161616"/>
<path d="M212.826 319.038L264.499 350.042V288.034L212.826 257.031V319.038Z" fill="#161616"/>
<path d="M264.499 288.034V350.042L316.172 319.038V257.031L264.499 288.034Z" fill="#161616"/>
<path d="M264.499 350.042L212.826 319.038V257.031M264.499 350.042V288.034M264.499 350.042L316.172 319.038V257.031M264.499 288.034L212.826 257.031M264.499 288.034L316.172 257.031M212.826 257.031L264.499 226.027L316.172 257.031" stroke="#EAEAEA" stroke-width="4.59316"/>
<path d="M241.694 286.881L241.694 297.445L248.397 290.479L248.914 289.941L249.433 290.479L252.184 293.339L252.661 293.835L252.186 294.333L245.469 301.369L255.635 301.369L255.635 306.9L245.478 306.9L252.184 313.869L252.668 314.374L252.178 314.872L249.365 317.731L248.846 318.258L248.334 317.725L241.694 310.824L241.694 321.401L240.963 321.39L237.024 321.324L236.317 321.312L236.317 310.835L229.678 317.788L229.155 318.337L228.635 317.784L225.884 314.86L225.415 314.362L225.89 313.869L232.595 306.9L222.375 306.9L222.375 301.369L232.605 301.369L225.888 294.333L225.411 293.835L225.89 293.339L228.64 290.479L229.161 289.939L229.678 290.481L236.317 297.434L236.317 286.881L241.694 286.881Z" fill="#EAEAEA" stroke="#EAEAEA" stroke-width="1.438"/>
<path d="M264.499 288.034L316.172 319.038L367.845 288.034L316.172 257.031L264.499 288.034Z" fill="#161616"/>
<path d="M264.499 350.042L316.172 381.046V319.038L264.499 288.034V350.042Z" fill="#161616"/>
<path d="M316.172 319.038V381.046L367.845 350.042V288.034L316.172 319.038Z" fill="#161616"/>
<path d="M316.172 381.046L264.499 350.042V288.034M316.172 381.046V319.038M316.172 381.046L367.845 350.042V288.034M316.172 319.038L264.499 288.034M316.172 319.038L367.845 288.034M264.499 288.034L316.172 257.031L367.845 288.034" stroke="#EAEAEA" stroke-width="4.59316"/>
<path d="M293.367 317.885L293.367 328.449L300.07 321.483L300.588 320.945L301.106 321.483L303.857 324.343L304.335 324.839L303.859 325.337L297.142 332.373L307.308 332.373L307.308 337.904L297.151 337.904L303.857 344.873L304.341 345.378L303.851 345.876L301.038 348.735L300.519 349.262L300.007 348.729L293.367 341.828L293.367 352.405L292.636 352.393L288.697 352.328L287.99 352.316L287.99 341.839L281.351 348.792L280.828 349.341L280.308 348.788L277.557 345.864L277.088 345.366L277.563 344.873L284.268 337.904L274.048 337.904L274.048 332.373L284.278 332.373L277.561 325.337L277.085 324.839L277.563 324.343L280.313 321.483L280.834 320.943L281.351 321.485L287.99 328.438L287.99 317.885L293.367 317.885Z" fill="#EAEAEA" stroke="#EAEAEA" stroke-width="1.438"/>
<path d="M109.48 133.015L161.153 164.019L212.826 133.015L161.153 102.012L109.48 133.015Z" fill="#161616"/>
<path d="M109.48 195.023L161.153 226.027V164.019L109.48 133.015V195.023Z" fill="#161616"/>
<path d="M161.153 164.019V226.027L212.826 195.023V133.015L161.153 164.019Z" fill="#161616"/>
<path d="M161.153 226.027L109.48 195.023V133.015M161.153 226.027V164.019M161.153 226.027L212.826 195.023V133.015M161.153 164.019L109.48 133.015M161.153 164.019L212.826 133.015M109.48 133.015L161.153 102.012L212.826 133.015" stroke="#EAEAEA" stroke-width="4.59316"/>
<path d="M138.348 162.866L138.348 173.43L145.051 166.464L145.568 165.926L146.087 166.464L148.838 169.324L149.315 169.82L148.84 170.318L142.123 177.354L152.289 177.354L152.289 182.885L142.132 182.885L148.838 189.854L149.322 190.359L148.832 190.857L146.018 193.716L145.5 194.243L144.988 193.711L138.348 186.809L138.348 197.386L137.617 197.375L133.678 197.309L132.971 197.297L132.971 186.82L126.332 193.773L125.809 194.322L125.289 193.769L122.538 190.845L122.069 190.347L122.544 189.854L129.249 182.885L119.029 182.885L119.029 177.354L129.259 177.354L122.542 170.318L122.065 169.82L122.544 169.324L125.294 166.464L125.814 165.924L126.332 166.466L132.971 173.419L132.971 162.866L138.348 162.866Z" fill="#EAEAEA" stroke="#EAEAEA" stroke-width="1.438"/>
<path d="M161.153 164.019L212.826 195.023L264.499 164.019L212.826 133.015L161.153 164.019Z" fill="#161616"/>
<path d="M161.153 226.027L212.826 257.031V195.023L161.153 164.019V226.027Z" fill="#161616"/>
<path d="M212.826 195.023V257.031L264.499 226.027V164.019L212.826 195.023Z" fill="#161616"/>
<path d="M212.826 257.031L161.153 226.027V164.019M212.826 257.031V195.023M212.826 257.031L264.499 226.027V164.019M212.826 195.023L161.153 164.019M212.826 195.023L264.499 164.019M161.153 164.019L212.826 133.015L264.499 164.019" stroke="#EAEAEA" stroke-width="4.59316"/>
<path d="M190.021 193.87L190.021 204.434L196.724 197.468L197.241 196.93L197.76 197.468L200.511 200.328L200.988 200.824L200.513 201.322L193.796 208.358L203.962 208.358L203.962 213.889L193.805 213.889L200.511 220.858L200.995 221.363L200.505 221.861L197.692 224.72L197.173 225.247L196.661 224.714L190.021 217.813L190.021 228.39L189.29 228.378L185.351 228.313L184.644 228.301L184.644 217.824L178.005 224.777L177.482 225.326L176.962 224.773L174.211 221.849L173.742 221.351L174.217 220.858L180.922 213.889L170.702 213.889L170.702 208.358L180.932 208.358L174.215 201.322L173.738 200.824L174.217 200.328L176.967 197.468L177.487 196.928L178.005 197.47L184.644 204.423L184.644 193.87L190.021 193.87Z" fill="#EAEAEA" stroke="#EAEAEA" stroke-width="1.438"/>
<path d="M212.826 195.023L264.499 226.027L316.172 195.023L264.499 164.019L212.826 195.023Z" fill="#161616"/>
<path d="M212.826 257.031L264.499 288.035V226.027L212.826 195.023V257.031Z" fill="#161616"/>
<path d="M264.499 226.027V288.035L316.172 257.031V195.023L264.499 226.027Z" fill="#161616"/>
<path d="M264.499 288.035L212.826 257.031V195.023M264.499 288.035V226.027M264.499 288.035L316.172 257.031V195.023M264.499 226.027L212.826 195.023M264.499 226.027L316.172 195.023M212.826 195.023L264.499 164.019L316.172 195.023" stroke="#EAEAEA" stroke-width="4.59316"/>
<path d="M241.694 224.873L241.694 235.438L248.397 228.472L248.914 227.934L249.433 228.472L252.184 231.331L252.661 231.828L252.186 232.326L245.469 239.362L255.635 239.362L255.635 244.893L245.478 244.893L252.184 251.862L252.668 252.367L252.178 252.865L249.365 255.724L248.846 256.25L248.334 255.718L241.694 248.817L241.694 259.394L240.963 259.382L237.024 259.317L236.317 259.305L236.317 248.828L229.678 255.781L229.155 256.329L228.635 255.777L225.884 252.853L225.415 252.355L225.89 251.862L232.595 244.893L222.375 244.893L222.375 239.362L232.605 239.362L225.888 232.326L225.411 231.828L225.89 231.331L228.64 228.472L229.161 227.932L229.678 228.474L236.317 235.427L236.317 224.873L241.694 224.873Z" fill="#EAEAEA" stroke="#EAEAEA" stroke-width="1.438"/>
<path d="M264.499 226.027L316.172 257.031L367.845 226.027L316.172 195.023L264.499 226.027Z" fill="#161616"/>
<path d="M264.499 288.035L316.172 319.039V257.031L264.499 226.027V288.035Z" fill="#161616"/>
<path d="M316.172 257.031V319.039L367.845 288.035V226.027L316.172 257.031Z" fill="#161616"/>
<path d="M316.172 319.039L264.499 288.035V226.027M316.172 319.039V257.031M316.172 319.039L367.845 288.035V226.027M316.172 257.031L264.499 226.027M316.172 257.031L367.845 226.027M264.499 226.027L316.172 195.023L367.845 226.027" stroke="#EAEAEA" stroke-width="4.59316"/>
<path d="M293.367 255.877L293.367 266.442L300.07 259.476L300.588 258.938L301.106 259.476L303.857 262.335L304.335 262.831L303.859 263.329L297.142 270.366L307.308 270.366L307.308 275.897L297.151 275.897L303.857 282.866L304.341 283.37L303.851 283.869L301.038 286.728L300.519 287.254L300.007 286.722L293.367 279.821L293.367 290.398L292.636 290.386L288.697 290.321L287.99 290.309L287.99 279.831L281.351 286.785L280.828 287.333L280.308 286.781L277.557 283.857L277.088 283.359L277.563 282.866L284.268 275.897L274.048 275.897L274.048 270.366L284.278 270.366L277.561 263.329L277.085 262.831L277.563 262.335L280.313 259.476L280.834 258.936L281.351 259.478L287.99 266.431L287.99 255.877L293.367 255.877Z" fill="#EAEAEA" stroke="#EAEAEA" stroke-width="1.438"/>
<path d="M109.48 71.0077L161.153 102.012L212.826 71.0077L161.153 40.0039L109.48 71.0077Z" fill="#161616"/>
<path d="M109.48 133.015L161.153 164.019V102.012L109.48 71.0077V133.015Z" fill="#161616"/>
<path d="M161.153 102.012V164.019L212.826 133.015V71.0077L161.153 102.012Z" fill="#161616"/>
<path d="M161.153 164.019L109.48 133.015V71.0077M161.153 164.019V102.012M161.153 164.019L212.826 133.015V71.0077M161.153 102.012L109.48 71.0077M161.153 102.012L212.826 71.0077M109.48 71.0077L161.153 40.0039L212.826 71.0077" stroke="#EAEAEA" stroke-width="4.59316"/>
<path d="M138.348 100.858L138.348 111.423L145.051 104.457L145.568 103.919L146.087 104.457L148.838 107.316L149.315 107.812L148.84 108.31L142.123 115.346L152.289 115.346L152.289 120.878L142.132 120.878L148.838 127.846L149.322 128.351L148.832 128.849L146.018 131.709L145.5 132.235L144.988 131.703L138.348 124.801L138.348 135.379L137.617 135.367L133.678 135.301L132.971 135.29L132.971 124.812L126.332 131.765L125.809 132.314L125.289 131.761L122.538 128.838L122.069 128.339L122.544 127.846L129.249 120.878L119.029 120.878L119.029 115.346L129.259 115.346L122.542 108.31L122.065 107.812L122.544 107.316L125.294 104.457L125.814 103.917L126.332 104.459L132.971 111.412L132.971 100.858L138.348 100.858Z" fill="#EAEAEA" stroke="#EAEAEA" stroke-width="1.438"/>
<path d="M161.153 102.012L212.826 133.015L264.499 102.012L212.826 71.0078L161.153 102.012Z" fill="#161616"/>
<path d="M161.153 164.019L212.826 195.023V133.015L161.153 102.012V164.019Z" fill="#161616"/>
<path d="M212.826 133.015V195.023L264.499 164.019V102.012L212.826 133.015Z" fill="#161616"/>
<path d="M212.826 195.023L161.153 164.019V102.012M212.826 195.023V133.015M212.826 195.023L264.499 164.019V102.012M212.826 133.015L161.153 102.012M212.826 133.015L264.499 102.012M161.153 102.012L212.826 71.0078L264.499 102.012" stroke="#EAEAEA" stroke-width="4.59316"/>
<path d="M190.021 131.862L190.021 142.426L196.724 135.461L197.241 134.922L197.76 135.461L200.511 138.32L200.988 138.816L200.513 139.314L193.796 146.35L203.962 146.35L203.962 151.881L193.805 151.881L200.511 158.85L200.995 159.355L200.505 159.853L197.692 162.712L197.173 163.239L196.661 162.707L190.021 155.805L190.021 166.382L189.29 166.371L185.351 166.305L184.644 166.294L184.644 155.816L178.005 162.769L177.482 163.318L176.962 162.765L174.211 159.841L173.742 159.343L174.217 158.85L180.922 151.881L170.702 151.881L170.702 146.35L180.932 146.35L174.215 139.314L173.738 138.816L174.217 138.32L176.967 135.461L177.487 134.921L178.005 135.462L184.644 142.416L184.644 131.862L190.021 131.862Z" fill="#EAEAEA" stroke="#EAEAEA" stroke-width="1.438"/>
<path d="M212.826 133.015L264.499 164.019L316.172 133.015L264.499 102.012L212.826 133.015Z" fill="#161616"/>
<path d="M212.826 195.023L264.499 226.027V164.019L212.826 133.015V195.023Z" fill="#161616"/>
<path d="M264.499 164.019V226.027L316.172 195.023V133.015L264.499 164.019Z" fill="#161616"/>
<path d="M264.499 226.027L212.826 195.023V133.015M264.499 226.027V164.019M264.499 226.027L316.172 195.023V133.015M264.499 164.019L212.826 133.015M264.499 164.019L316.172 133.015M212.826 133.015L264.499 102.012L316.172 133.015" stroke="#EAEAEA" stroke-width="4.59316"/>
<path d="M241.694 162.866L241.694 173.43L248.397 166.464L248.914 165.926L249.433 166.464L252.184 169.324L252.661 169.82L252.186 170.318L245.469 177.354L255.635 177.354L255.635 182.885L245.478 182.885L252.184 189.854L252.668 190.359L252.178 190.857L249.365 193.716L248.846 194.243L248.334 193.711L241.694 186.809L241.694 197.386L240.963 197.375L237.024 197.309L236.317 197.297L236.317 186.82L229.678 193.773L229.155 194.322L228.635 193.769L225.884 190.845L225.415 190.347L225.89 189.854L232.595 182.885L222.375 182.885L222.375 177.354L232.605 177.354L225.888 170.318L225.411 169.82L225.89 169.324L228.64 166.464L229.161 165.924L229.678 166.466L236.317 173.419L236.317 162.866L241.694 162.866Z" fill="#EAEAEA" stroke="#EAEAEA" stroke-width="1.438"/>
<path d="M264.499 164.019L316.172 195.023L367.845 164.019L316.172 133.015L264.499 164.019Z" fill="#161616"/>
<path d="M264.499 226.027L316.172 257.03V195.023L264.499 164.019V226.027Z" fill="#161616"/>
<path d="M316.172 195.023V257.03L367.845 226.027V164.019L316.172 195.023Z" fill="#161616"/>
<path d="M316.172 257.03L264.499 226.027V164.019M316.172 257.03V195.023M316.172 257.03L367.845 226.027V164.019M316.172 195.023L264.499 164.019M316.172 195.023L367.845 164.019M264.499 164.019L316.172 133.015L367.845 164.019" stroke="#EAEAEA" stroke-width="4.59316"/>
<path d="M293.367 193.869L293.367 204.434L300.07 197.468L300.588 196.93L301.106 197.468L303.857 200.327L304.335 200.823L303.859 201.321L297.142 208.358L307.308 208.358L307.308 213.889L297.151 213.889L303.857 220.858L304.341 221.362L303.851 221.86L301.038 224.72L300.519 225.246L300.007 224.714L293.367 217.813L293.367 228.39L292.636 228.378L288.697 228.313L287.99 228.301L287.99 217.823L281.351 224.776L280.828 225.325L280.308 224.773L277.557 221.849L277.088 221.351L277.563 220.858L284.268 213.889L274.048 213.889L274.048 208.358L284.278 208.358L277.561 201.321L277.085 200.823L277.563 200.327L280.313 197.468L280.834 196.928L281.351 197.47L287.99 204.423L287.99 193.869L293.367 193.869Z" fill="#EAEAEA" stroke="#EAEAEA" stroke-width="1.438"/>
<path d="M57.8069 288.035L109.48 319.038L161.153 288.035L109.48 257.031L57.8069 288.035Z" fill="#161616"/>
<path d="M57.8069 350.042L109.48 381.046V319.038L57.8069 288.035V350.042Z" fill="#161616"/>
<path d="M109.48 319.038V381.046L161.153 350.042V288.035L109.48 319.038Z" fill="#161616"/>
<path d="M109.48 381.046L57.8069 350.042V288.035M109.48 381.046V319.038M109.48 381.046L161.153 350.042V288.035M109.48 319.038L57.8069 288.035M109.48 319.038L161.153 288.035M57.8069 288.035L109.48 257.031L161.153 288.035" stroke="#EAEAEA" stroke-width="4.59316"/>
<path d="M86.6746 317.885L86.6746 328.449L93.3777 321.483L93.8953 320.945L94.4138 321.483L97.1648 324.343L97.6423 324.839L97.1667 325.337L90.4499 332.373L100.616 332.373L100.616 337.904L90.4587 337.904L97.1648 344.873L97.6492 345.378L97.1589 345.876L94.3455 348.735L93.8269 349.262L93.3152 348.729L86.6746 341.828L86.6746 352.405L85.9441 352.394L82.0046 352.328L81.2976 352.316L81.2976 341.839L74.6589 348.792L74.1355 349.341L73.616 348.788L70.865 345.864L70.3962 345.366L70.8708 344.873L77.5759 337.904L67.3562 337.904L67.3562 332.373L77.5857 332.373L70.8689 325.337L70.3923 324.839L70.8708 324.343L73.6208 321.483L74.1414 320.943L74.6589 321.485L81.2976 328.438L81.2976 317.885L86.6746 317.885Z" fill="#EAEAEA" stroke="#EAEAEA" stroke-width="1.438"/>
<path d="M109.48 319.038L161.153 350.042L212.826 319.038L161.153 288.034L109.48 319.038Z" fill="#161616"/>
<path d="M109.48 381.046L161.153 412.05V350.042L109.48 319.038V381.046Z" fill="#161616"/>
<path d="M161.153 350.042V412.05L212.826 381.046V319.038L161.153 350.042Z" fill="#161616"/>
<path d="M161.153 412.05L109.48 381.046V319.038M161.153 412.05V350.042M161.153 412.05L212.826 381.046V319.038M161.153 350.042L109.48 319.038M161.153 350.042L212.826 319.038M109.48 319.038L161.153 288.034L212.826 319.038" stroke="#EAEAEA" stroke-width="4.59316"/>
<path d="M138.348 348.889L138.348 359.453L145.051 352.488L145.568 351.949L146.087 352.488L148.838 355.347L149.315 355.843L148.84 356.341L142.123 363.377L152.289 363.377L152.289 368.908L142.132 368.908L148.838 375.877L149.322 376.382L148.832 376.88L146.018 379.739L145.5 380.266L144.988 379.734L138.348 372.832L138.348 383.409L137.617 383.398L133.678 383.332L132.971 383.321L132.971 372.843L126.332 379.796L125.809 380.345L125.289 379.792L122.538 376.868L122.069 376.37L122.544 375.877L129.249 368.908L119.029 368.908L119.029 363.377L129.259 363.377L122.542 356.341L122.065 355.843L122.544 355.347L125.294 352.488L125.814 351.947L126.332 352.489L132.971 359.443L132.971 348.889L138.348 348.889Z" fill="#EAEAEA" stroke="#EAEAEA" stroke-width="1.438"/>
<path d="M161.153 350.042L212.826 381.046L264.499 350.042L212.826 319.038L161.153 350.042Z" fill="#161616"/>
<path d="M161.153 412.049L212.826 443.053V381.046L161.153 350.042V412.049Z" fill="#161616"/>
<path d="M212.826 381.046V443.053L264.499 412.049V350.042L212.826 381.046Z" fill="#161616"/>
<path d="M212.826 443.053L161.153 412.049V350.042M212.826 443.053V381.046M212.826 443.053L264.499 412.049V350.042M212.826 381.046L161.153 350.042M212.826 381.046L264.499 350.042M161.153 350.042L212.826 319.038L264.499 350.042" stroke="#EAEAEA" stroke-width="4.59316"/>
<path d="M190.021 379.892L190.021 390.457L196.724 383.491L197.242 382.953L197.76 383.491L200.511 386.35L200.989 386.846L200.513 387.344L193.796 394.381L203.962 394.381L203.962 399.912L193.805 399.912L200.511 406.881L200.995 407.385L200.505 407.883L197.692 410.743L197.173 411.269L196.661 410.737L190.021 403.836L190.021 414.413L189.29 414.401L185.351 414.336L184.644 414.324L184.644 403.846L178.005 410.8L177.482 411.348L176.962 410.796L174.211 407.872L173.742 407.374L174.217 406.881L180.922 399.912L170.702 399.912L170.702 394.381L180.932 394.381L174.215 387.344L173.739 386.846L174.217 386.35L176.967 383.491L177.488 382.951L178.005 383.493L184.644 390.446L184.644 379.892L190.021 379.892Z" fill="#EAEAEA" stroke="#EAEAEA" stroke-width="1.438"/>
<path d="M212.826 381.046L264.499 412.049L316.172 381.046L264.499 350.042L212.826 381.046Z" fill="#161616"/>
<path d="M212.826 443.053L264.499 474.057V412.049L212.826 381.046V443.053Z" fill="#161616"/>
<path d="M264.499 412.049V474.057L316.172 443.053V381.046L264.499 412.049Z" fill="#161616"/>
<path d="M264.499 474.057L212.826 443.053V381.046M264.499 474.057V412.049M264.499 474.057L316.172 443.053V381.046M264.499 412.049L212.826 381.046M264.499 412.049L316.172 381.046M212.826 381.046L264.499 350.042L316.172 381.046" stroke="#EAEAEA" stroke-width="4.59316"/>
<path d="M241.694 410.896L241.694 421.461L248.397 414.495L248.914 413.957L249.433 414.495L252.184 417.354L252.661 417.85L252.186 418.348L245.469 425.384L255.635 425.384L255.635 430.916L245.478 430.916L252.184 437.884L252.668 438.389L252.178 438.887L249.365 441.747L248.846 442.273L248.334 441.741L241.694 434.84L241.694 445.417L240.963 445.405L237.024 445.34L236.317 445.328L236.317 434.85L229.678 441.803L229.155 442.352L228.635 441.8L225.884 438.876L225.415 438.378L225.89 437.884L232.595 430.916L222.375 430.916L222.375 425.384L232.605 425.384L225.888 418.348L225.411 417.85L225.89 417.354L228.64 414.495L229.161 413.955L229.678 414.497L236.317 421.45L236.317 410.896L241.694 410.896Z" fill="#EAEAEA" stroke="#EAEAEA" stroke-width="1.438"/>
<path d="M57.8069 226.027L109.48 257.031L161.153 226.027L109.48 195.023L57.8069 226.027Z" fill="#161616"/>
<path d="M57.8069 288.035L109.48 319.039V257.031L57.8069 226.027V288.035Z" fill="#161616"/>
<path d="M109.48 257.031V319.039L161.153 288.035V226.027L109.48 257.031Z" fill="#161616"/>
<path d="M109.48 319.039L57.8069 288.035V226.027M109.48 319.039V257.031M109.48 319.039L161.153 288.035V226.027M109.48 257.031L57.8069 226.027M109.48 257.031L161.153 226.027M57.8069 226.027L109.48 195.023L161.153 226.027" stroke="#EAEAEA" stroke-width="4.59316"/>
<path d="M86.6746 255.877L86.6746 266.442L93.3777 259.476L93.8953 258.938L94.4138 259.476L97.1648 262.335L97.6423 262.832L97.1667 263.33L90.4499 270.366L100.616 270.366L100.616 275.897L90.4587 275.897L97.1648 282.866L97.6492 283.371L97.1589 283.869L94.3455 286.728L93.8269 287.254L93.3152 286.722L86.6746 279.821L86.6746 290.398L85.9441 290.386L82.0046 290.321L81.2976 290.309L81.2976 279.832L74.6589 286.785L74.1355 287.333L73.616 286.781L70.865 283.857L70.3962 283.359L70.8708 282.866L77.5759 275.897L67.3562 275.897L67.3562 270.366L77.5857 270.366L70.8689 263.33L70.3923 262.832L70.8708 262.335L73.6208 259.476L74.1414 258.936L74.6589 259.478L81.2976 266.431L81.2976 255.877L86.6746 255.877Z" fill="#EAEAEA" stroke="#EAEAEA" stroke-width="1.438"/>
<path d="M109.48 257.031L161.153 288.035L212.826 257.031L161.153 226.027L109.48 257.031Z" fill="#161616"/>
<path d="M109.48 319.039L161.153 350.042V288.035L109.48 257.031V319.039Z" fill="#161616"/>
<path d="M161.153 288.035V350.042L212.826 319.039V257.031L161.153 288.035Z" fill="#161616"/>
<path d="M161.153 350.042L109.48 319.039V257.031M161.153 350.042V288.035M161.153 350.042L212.826 319.039V257.031M161.153 288.035L109.48 257.031M161.153 288.035L212.826 257.031M109.48 257.031L161.153 226.027L212.826 257.031" stroke="#EAEAEA" stroke-width="4.59316"/>
<path d="M138.348 286.881L138.348 297.446L145.051 290.48L145.568 289.942L146.087 290.48L148.838 293.339L149.315 293.835L148.84 294.333L142.123 301.369L152.289 301.369L152.289 306.901L142.132 306.901L148.838 313.869L149.322 314.374L148.832 314.872L146.018 317.732L145.5 318.258L144.988 317.726L138.348 310.824L138.348 321.402L137.617 321.39L133.678 321.324L132.971 321.313L132.971 310.835L126.332 317.788L125.809 318.337L125.289 317.784L122.538 314.861L122.069 314.363L122.544 313.869L129.249 306.901L119.029 306.901L119.029 301.369L129.259 301.369L122.542 294.333L122.065 293.835L122.544 293.339L125.294 290.48L125.814 289.94L126.332 290.482L132.971 297.435L132.971 286.881L138.348 286.881Z" fill="#EAEAEA" stroke="#EAEAEA" stroke-width="1.438"/>
<path d="M161.153 288.035L212.826 319.039L264.499 288.035L212.826 257.031L161.153 288.035Z" fill="#161616"/>
<path d="M161.153 350.042L212.826 381.046V319.039L161.153 288.035V350.042Z" fill="#161616"/>
<path d="M212.826 319.039V381.046L264.499 350.042V288.035L212.826 319.039Z" fill="#161616"/>
<path d="M212.826 381.046L161.153 350.042V288.035M212.826 381.046V319.039M212.826 381.046L264.499 350.042V288.035M212.826 319.039L161.153 288.035M212.826 319.039L264.499 288.035M161.153 288.035L212.826 257.031L264.499 288.035" stroke="#EAEAEA" stroke-width="4.59316"/>
<path d="M190.021 317.885L190.021 328.449L196.724 321.484L197.242 320.946L197.76 321.484L200.511 324.343L200.989 324.839L200.513 325.337L193.796 332.373L203.962 332.373L203.962 337.904L193.805 337.904L200.511 344.873L200.995 345.378L200.505 345.876L197.692 348.736L197.173 349.262L196.661 348.73L190.021 341.828L190.021 352.405L189.29 352.394L185.351 352.328L184.644 352.317L184.644 341.839L178.005 348.792L177.482 349.341L176.962 348.788L174.211 345.864L173.742 345.366L174.217 344.873L180.922 337.904L170.702 337.904L170.702 332.373L180.932 332.373L174.215 325.337L173.739 324.839L174.217 324.343L176.967 321.484L177.488 320.944L178.005 321.486L184.644 328.439L184.644 317.885L190.021 317.885Z" fill="#EAEAEA" stroke="#EAEAEA" stroke-width="1.438"/>
<path d="M212.826 319.039L264.499 350.043L316.172 319.039L264.499 288.035L212.826 319.039Z" fill="#161616"/>
<path d="M212.826 381.046L264.499 412.05V350.043L212.826 319.039V381.046Z" fill="#161616"/>
<path d="M264.499 350.043V412.05L316.172 381.046V319.039L264.499 350.043Z" fill="#161616"/>
<path d="M264.499 412.05L212.826 381.046V319.039M264.499 412.05V350.043M264.499 412.05L316.172 381.046V319.039M264.499 350.043L212.826 319.039M264.499 350.043L316.172 319.039M212.826 319.039L264.499 288.035L316.172 319.039" stroke="#EAEAEA" stroke-width="4.59316"/>
<path d="M241.694 348.889L241.694 359.454L248.397 352.488L248.914 351.95L249.433 352.488L252.184 355.347L252.661 355.843L252.186 356.341L245.469 363.378L255.635 363.378L255.635 368.909L245.478 368.909L252.184 375.878L252.668 376.382L252.178 376.881L249.365 379.74L248.846 380.266L248.334 379.734L241.694 372.833L241.694 383.41L240.963 383.398L237.024 383.333L236.317 383.321L236.317 372.843L229.678 379.797L229.155 380.345L228.635 379.793L225.884 376.869L225.415 376.371L225.89 375.878L232.595 368.909L222.375 368.909L222.375 363.378L232.605 363.378L225.888 356.341L225.411 355.843L225.89 355.347L228.64 352.488L229.161 351.948L229.678 352.49L236.317 359.443L236.317 348.889L241.694 348.889Z" fill="#EAEAEA" stroke="#EAEAEA" stroke-width="1.438"/>
<path d="M57.8069 164.019L109.48 195.023L161.153 164.019L109.48 133.016L57.8069 164.019Z" fill="#161616"/>
<path d="M57.8069 226.027L109.48 257.031V195.023L57.8069 164.019V226.027Z" fill="#161616"/>
<path d="M109.48 195.023V257.031L161.153 226.027V164.019L109.48 195.023Z" fill="#161616"/>
<path d="M109.48 257.031L57.8069 226.027V164.019M109.48 257.031V195.023M109.48 257.031L161.153 226.027V164.019M109.48 195.023L57.8069 164.019M109.48 195.023L161.153 164.019M57.8069 164.019L109.48 133.016L161.153 164.019" stroke="#EAEAEA" stroke-width="4.59316"/>
<path d="M86.6746 193.87L86.6746 204.434L93.3777 197.468L93.8953 196.93L94.4138 197.468L97.1648 200.328L97.6423 200.824L97.1667 201.322L90.4499 208.358L100.616 208.358L100.616 213.889L90.4587 213.889L97.1648 220.858L97.6492 221.363L97.1589 221.861L94.3455 224.72L93.8269 225.247L93.3152 224.714L86.6746 217.813L86.6746 228.39L85.9441 228.378L82.0046 228.313L81.2976 228.301L81.2976 217.824L74.6589 224.777L74.1355 225.326L73.616 224.773L70.865 221.849L70.3962 221.351L70.8708 220.858L77.5759 213.889L67.3562 213.889L67.3562 208.358L77.5857 208.358L70.8689 201.322L70.3923 200.824L70.8708 200.328L73.6208 197.468L74.1414 196.928L74.6589 197.47L81.2976 204.423L81.2976 193.87L86.6746 193.87Z" fill="#EAEAEA" stroke="#EAEAEA" stroke-width="1.438"/>
<path d="M109.48 195.023L161.153 226.027L212.826 195.023L161.153 164.019L109.48 195.023Z" fill="#161616"/>
<path d="M109.48 257.031L161.153 288.035V226.027L109.48 195.023V257.031Z" fill="#161616"/>
<path d="M161.153 226.027V288.035L212.826 257.031V195.023L161.153 226.027Z" fill="#161616"/>
<path d="M161.153 288.035L109.48 257.031V195.023M161.153 288.035V226.027M161.153 288.035L212.826 257.031V195.023M161.153 226.027L109.48 195.023M161.153 226.027L212.826 195.023M109.48 195.023L161.153 164.019L212.826 195.023" stroke="#EAEAEA" stroke-width="4.59316"/>
<path d="M138.348 224.873L138.348 235.438L145.051 228.472L145.568 227.934L146.087 228.472L148.838 231.331L149.315 231.828L148.84 232.326L142.123 239.362L152.289 239.362L152.289 244.893L142.132 244.893L148.838 251.862L149.322 252.367L148.832 252.865L146.018 255.724L145.5 256.25L144.988 255.718L138.348 248.817L138.348 259.394L137.617 259.382L133.678 259.317L132.971 259.305L132.971 248.828L126.332 255.781L125.809 256.329L125.289 255.777L122.538 252.853L122.069 252.355L122.544 251.862L129.249 244.893L119.029 244.893L119.029 239.362L129.259 239.362L122.542 232.326L122.065 231.828L122.544 231.331L125.294 228.472L125.814 227.932L126.332 228.474L132.971 235.427L132.971 224.873L138.348 224.873Z" fill="#EAEAEA" stroke="#EAEAEA" stroke-width="1.438"/>
<path d="M161.153 226.027L212.826 257.031L264.499 226.027L212.826 195.023L161.153 226.027Z" fill="#161616"/>
<path d="M161.153 288.035L212.826 319.039V257.031L161.153 226.027V288.035Z" fill="#161616"/>
<path d="M212.826 257.031V319.039L264.499 288.035V226.027L212.826 257.031Z" fill="#161616"/>
<path d="M212.826 319.039L161.153 288.035V226.027M212.826 319.039V257.031M212.826 319.039L264.499 288.035V226.027M212.826 257.031L161.153 226.027M212.826 257.031L264.499 226.027M161.153 226.027L212.826 195.023L264.499 226.027" stroke="#EAEAEA" stroke-width="4.59316"/>
<path d="M190.021 255.877L190.021 266.442L196.724 259.476L197.242 258.938L197.76 259.476L200.511 262.335L200.989 262.831L200.513 263.329L193.796 270.366L203.962 270.366L203.962 275.897L193.805 275.897L200.511 282.866L200.995 283.37L200.505 283.869L197.692 286.728L197.173 287.254L196.661 286.722L190.021 279.821L190.021 290.398L189.29 290.386L185.351 290.321L184.644 290.309L184.644 279.831L178.005 286.785L177.482 287.333L176.962 286.781L174.211 283.857L173.742 283.359L174.217 282.866L180.922 275.897L170.702 275.897L170.702 270.366L180.932 270.366L174.215 263.329L173.739 262.831L174.217 262.335L176.967 259.476L177.488 258.936L178.005 259.478L184.644 266.431L184.644 255.877L190.021 255.877Z" fill="#EAEAEA" stroke="#EAEAEA" stroke-width="1.438"/>
<path d="M212.826 257.031L264.499 288.034L316.172 257.031L264.499 226.027L212.826 257.031Z" fill="#161616"/>
<path d="M212.826 319.038L264.499 350.042V288.034L212.826 257.031V319.038Z" fill="#161616"/>
<path d="M264.499 288.034V350.042L316.172 319.038V257.031L264.499 288.034Z" fill="#161616"/>
<path d="M264.499 350.042L212.826 319.038V257.031M264.499 350.042V288.034M264.499 350.042L316.172 319.038V257.031M264.499 288.034L212.826 257.031M264.499 288.034L316.172 257.031M212.826 257.031L264.499 226.027L316.172 257.031" stroke="#EAEAEA" stroke-width="4.59316"/>
<path d="M241.694 286.881L241.694 297.445L248.397 290.479L248.914 289.941L249.433 290.479L252.184 293.339L252.661 293.835L252.186 294.333L245.469 301.369L255.635 301.369L255.635 306.9L245.478 306.9L252.184 313.869L252.668 314.374L252.178 314.872L249.365 317.731L248.846 318.258L248.334 317.725L241.694 310.824L241.694 321.401L240.963 321.39L237.024 321.324L236.317 321.312L236.317 310.835L229.678 317.788L229.155 318.337L228.635 317.784L225.884 314.86L225.415 314.362L225.89 313.869L232.595 306.9L222.375 306.9L222.375 301.369L232.605 301.369L225.888 294.333L225.411 293.835L225.89 293.339L228.64 290.479L229.161 289.939L229.678 290.481L236.317 297.434L236.317 286.881L241.694 286.881Z" fill="#EAEAEA" stroke="#EAEAEA" stroke-width="1.438"/>
<path d="M57.8069 102.012L109.48 133.015L161.153 102.012L109.48 71.0078L57.8069 102.012Z" fill="#161616"/>
<path d="M57.8069 164.019L109.48 195.023V133.015L57.8069 102.012V164.019Z" fill="#161616"/>
<path d="M109.48 133.015V195.023L161.153 164.019V102.012L109.48 133.015Z" fill="#161616"/>
<path d="M109.48 195.023L57.8069 164.019V102.012M109.48 195.023V133.015M109.48 195.023L161.153 164.019V102.012M109.48 133.015L57.8069 102.012M109.48 133.015L161.153 102.012M57.8069 102.012L109.48 71.0078L161.153 102.012" stroke="#EAEAEA" stroke-width="4.59316"/>
<path d="M86.6746 131.862L86.6746 142.426L93.3777 135.461L93.8953 134.923L94.4138 135.461L97.1648 138.32L97.6423 138.816L97.1667 139.314L90.4499 146.35L100.616 146.35L100.616 151.882L90.4587 151.882L97.1648 158.85L97.6492 159.355L97.1589 159.853L94.3455 162.713L93.8269 163.239L93.3152 162.707L86.6746 155.805L86.6746 166.382L85.9441 166.371L82.0046 166.305L81.2976 166.294L81.2976 155.816L74.6589 162.769L74.1355 163.318L73.616 162.765L70.865 159.841L70.3962 159.343L70.8708 158.85L77.5759 151.882L67.3562 151.882L67.3562 146.35L77.5857 146.35L70.8689 139.314L70.3923 138.816L70.8708 138.32L73.6208 135.461L74.1414 134.921L74.6589 135.463L81.2976 142.416L81.2976 131.862L86.6746 131.862Z" fill="#EAEAEA" stroke="#EAEAEA" stroke-width="1.438"/>
<path d="M109.48 133.015L161.153 164.019L212.826 133.015L161.153 102.012L109.48 133.015Z" fill="#161616"/>
<path d="M109.48 195.023L161.153 226.027V164.019L109.48 133.015V195.023Z" fill="#161616"/>
<path d="M161.153 164.019V226.027L212.826 195.023V133.015L161.153 164.019Z" fill="#161616"/>
<path d="M161.153 226.027L109.48 195.023V133.015M161.153 226.027V164.019M161.153 226.027L212.826 195.023V133.015M161.153 164.019L109.48 133.015M161.153 164.019L212.826 133.015M109.48 133.015L161.153 102.012L212.826 133.015" stroke="#EAEAEA" stroke-width="4.59316"/>
<path d="M138.348 162.866L138.348 173.43L145.051 166.464L145.568 165.926L146.087 166.464L148.838 169.324L149.315 169.82L148.84 170.318L142.123 177.354L152.289 177.354L152.289 182.885L142.132 182.885L148.838 189.854L149.322 190.359L148.832 190.857L146.018 193.716L145.5 194.243L144.988 193.711L138.348 186.809L138.348 197.386L137.617 197.375L133.678 197.309L132.971 197.297L132.971 186.82L126.332 193.773L125.809 194.322L125.289 193.769L122.538 190.845L122.069 190.347L122.544 189.854L129.249 182.885L119.029 182.885L119.029 177.354L129.259 177.354L122.542 170.318L122.065 169.82L122.544 169.324L125.294 166.464L125.814 165.924L126.332 166.466L132.971 173.419L132.971 162.866L138.348 162.866Z" fill="#EAEAEA" stroke="#EAEAEA" stroke-width="1.438"/>
<path d="M161.153 164.019L212.826 195.023L264.499 164.019L212.826 133.016L161.153 164.019Z" fill="#161616"/>
<path d="M161.153 226.027L212.826 257.031V195.023L161.153 164.019V226.027Z" fill="#161616"/>
<path d="M212.826 195.023V257.031L264.499 226.027V164.019L212.826 195.023Z" fill="#161616"/>
<path d="M212.826 257.031L161.153 226.027V164.019M212.826 257.031V195.023M212.826 257.031L264.499 226.027V164.019M212.826 195.023L161.153 164.019M212.826 195.023L264.499 164.019M161.153 164.019L212.826 133.016L264.499 164.019" stroke="#EAEAEA" stroke-width="4.59316"/>
<path d="M190.021 193.87L190.021 204.434L196.724 197.468L197.242 196.93L197.76 197.468L200.511 200.328L200.989 200.824L200.513 201.322L193.796 208.358L203.962 208.358L203.962 213.889L193.805 213.889L200.511 220.858L200.995 221.363L200.505 221.861L197.692 224.72L197.173 225.247L196.661 224.714L190.021 217.813L190.021 228.39L189.29 228.378L185.351 228.313L184.644 228.301L184.644 217.824L178.005 224.777L177.482 225.326L176.962 224.773L174.211 221.849L173.742 221.351L174.217 220.858L180.922 213.889L170.702 213.889L170.702 208.358L180.932 208.358L174.215 201.322L173.739 200.824L174.217 200.328L176.967 197.468L177.488 196.928L178.005 197.47L184.644 204.423L184.644 193.87L190.021 193.87Z" fill="#EAEAEA" stroke="#EAEAEA" stroke-width="1.438"/>
<path d="M212.826 195.023L264.499 226.027L316.172 195.023L264.499 164.019L212.826 195.023Z" fill="#161616"/>
<path d="M212.826 257.031L264.499 288.035V226.027L212.826 195.023V257.031Z" fill="#161616"/>
<path d="M264.499 226.027V288.035L316.172 257.031V195.023L264.499 226.027Z" fill="#161616"/>
<path d="M264.499 288.035L212.826 257.031V195.023M264.499 288.035V226.027M264.499 288.035L316.172 257.031V195.023M264.499 226.027L212.826 195.023M264.499 226.027L316.172 195.023M212.826 195.023L264.499 164.019L316.172 195.023" stroke="#EAEAEA" stroke-width="4.59316"/>
<path d="M241.694 224.874L241.694 235.438L248.397 228.472L248.914 227.934L249.433 228.472L252.184 231.332L252.661 231.828L252.186 232.326L245.469 239.362L255.635 239.362L255.635 244.893L245.478 244.893L252.184 251.862L252.668 252.367L252.178 252.865L249.365 255.724L248.846 256.25L248.334 255.718L241.694 248.817L241.694 259.394L240.963 259.382L237.024 259.317L236.317 259.305L236.317 248.828L229.678 255.781L229.155 256.33L228.635 255.777L225.884 252.853L225.415 252.355L225.89 251.862L232.595 244.893L222.375 244.893L222.375 239.362L232.605 239.362L225.888 232.326L225.411 231.828L225.89 231.332L228.64 228.472L229.161 227.932L229.678 228.474L236.317 235.427L236.317 224.874L241.694 224.874Z" fill="#EAEAEA" stroke="#EAEAEA" stroke-width="1.438"/>
<path d="M6.13379 319.038L57.8069 350.042L109.48 319.038L57.8069 288.035L6.13379 319.038Z" fill="#161616"/>
<path d="M6.13379 381.046L57.8069 412.05V350.042L6.13379 319.038V381.046Z" fill="#161616"/>
<path d="M57.8069 350.042V412.05L109.48 381.046V319.038L57.8069 350.042Z" fill="#161616"/>
<path d="M57.8069 412.05L6.13379 381.046V319.038M57.8069 412.05V350.042M57.8069 412.05L109.48 381.046V319.038M57.8069 350.042L6.13379 319.038M57.8069 350.042L109.48 319.038M6.13379 319.038L57.8069 288.035L109.48 319.038" stroke="#EAEAEA" stroke-width="4.59316"/>
<path d="M57.8069 350.043L109.48 381.046L161.153 350.043L109.48 319.039L57.8069 350.043Z" fill="#161616"/>
<path d="M57.8069 412.05L109.48 443.054V381.046L57.8069 350.043V412.05Z" fill="#161616"/>
<path d="M109.48 381.046V443.054L161.153 412.05V350.043L109.48 381.046Z" fill="#161616"/>
<path d="M109.48 443.054L57.8069 412.05V350.043M109.48 443.054V381.046M109.48 443.054L161.153 412.05V350.043M109.48 381.046L57.8069 350.043M109.48 381.046L161.153 350.043M57.8069 350.043L109.48 319.039L161.153 350.043" stroke="#EAEAEA" stroke-width="4.59316"/>
<path d="M109.48 381.046L161.153 412.05L212.826 381.046L161.153 350.043L109.48 381.046Z" fill="#161616"/>
<path d="M109.48 443.054L161.153 474.058V412.05L109.48 381.046V443.054Z" fill="#161616"/>
<path d="M161.153 412.05V474.058L212.826 443.054V381.046L161.153 412.05Z" fill="#161616"/>
<path d="M161.153 474.058L109.48 443.054V381.046M161.153 474.058V412.05M161.153 474.058L212.826 443.054V381.046M161.153 412.05L109.48 381.046M161.153 412.05L212.826 381.046M109.48 381.046L161.153 350.043L212.826 381.046" stroke="#EAEAEA" stroke-width="4.59316"/>
<path d="M161.153 412.05L212.826 443.054L264.499 412.05L212.826 381.047L161.153 412.05Z" fill="#161616"/>
<path d="M161.153 474.058L212.826 505.062V443.054L161.153 412.05V474.058Z" fill="#161616"/>
<path d="M212.826 443.054V505.062L264.499 474.058V412.05L212.826 443.054Z" fill="#161616"/>
<path d="M212.826 505.062L161.153 474.058V412.05M212.826 505.062V443.054M212.826 505.062L264.499 474.058V412.05M212.826 443.054L161.153 412.05M212.826 443.054L264.499 412.05M161.153 412.05L212.826 381.047L264.499 412.05" stroke="#EAEAEA" stroke-width="4.59316"/>
<path d="M6.13379 257.031L57.8069 288.034L109.48 257.031L57.8069 226.027L6.13379 257.031Z" fill="#161616"/>
<path d="M6.13379 319.038L57.8069 350.042V288.034L6.13379 257.031V319.038Z" fill="#161616"/>
<path d="M57.8069 288.034V350.042L109.48 319.038V257.031L57.8069 288.034Z" fill="#161616"/>
<path d="M57.8069 350.042L6.13379 319.038V257.031M57.8069 350.042V288.034M57.8069 350.042L109.48 319.038V257.031M57.8069 288.034L6.13379 257.031M57.8069 288.034L109.48 257.031M6.13379 257.031L57.8069 226.027L109.48 257.031" stroke="#EAEAEA" stroke-width="4.59316"/>
<path d="M57.8069 288.034L109.48 319.038L161.153 288.034L109.48 257.031L57.8069 288.034Z" fill="#161616"/>
<path d="M57.8069 350.042L109.48 381.046V319.038L57.8069 288.034V350.042Z" fill="#161616"/>
<path d="M109.48 319.038V381.046L161.153 350.042V288.034L109.48 319.038Z" fill="#161616"/>
<path d="M109.48 381.046L57.8069 350.042V288.034M109.48 381.046V319.038M109.48 381.046L161.153 350.042V288.034M109.48 319.038L57.8069 288.034M109.48 319.038L161.153 288.034M57.8069 288.034L109.48 257.031L161.153 288.034" stroke="#EAEAEA" stroke-width="4.59316"/>
<path d="M109.48 319.038L161.153 350.042L212.826 319.038L161.153 288.034L109.48 319.038Z" fill="#161616"/>
<path d="M109.48 381.046L161.153 412.05V350.042L109.48 319.038V381.046Z" fill="#161616"/>
<path d="M161.153 350.042V412.05L212.826 381.046V319.038L161.153 350.042Z" fill="#161616"/>
<path d="M161.153 412.05L109.48 381.046V319.038M161.153 412.05V350.042M161.153 412.05L212.826 381.046V319.038M161.153 350.042L109.48 319.038M161.153 350.042L212.826 319.038M109.48 319.038L161.153 288.034L212.826 319.038" stroke="#EAEAEA" stroke-width="4.59316"/>
<path d="M161.153 350.042L212.826 381.046L264.499 350.042L212.826 319.038L161.153 350.042Z" fill="#161616"/>
<path d="M161.153 412.049L212.826 443.053V381.046L161.153 350.042V412.049Z" fill="#161616"/>
<path d="M212.826 381.046V443.053L264.499 412.049V350.042L212.826 381.046Z" fill="#161616"/>
<path d="M212.826 443.053L161.153 412.049V350.042M212.826 443.053V381.046M212.826 443.053L264.499 412.049V350.042M212.826 381.046L161.153 350.042M212.826 381.046L264.499 350.042M161.153 350.042L212.826 319.038L264.499 350.042" stroke="#EAEAEA" stroke-width="4.59316"/>
<path d="M6.13379 195.023L57.8069 226.027L109.48 195.023L57.8069 164.019L6.13379 195.023Z" fill="#161616"/>
<path d="M6.13379 257.031L57.8069 288.035V226.027L6.13379 195.023V257.031Z" fill="#161616"/>
<path d="M57.8069 226.027V288.035L109.48 257.031V195.023L57.8069 226.027Z" fill="#161616"/>
<path d="M57.8069 288.035L6.13379 257.031V195.023M57.8069 288.035V226.027M57.8069 288.035L109.48 257.031V195.023M57.8069 226.027L6.13379 195.023M57.8069 226.027L109.48 195.023M6.13379 195.023L57.8069 164.019L109.48 195.023" stroke="#EAEAEA" stroke-width="4.59316"/>
<path d="M57.8069 226.027L109.48 257.031L161.153 226.027L109.48 195.023L57.8069 226.027Z" fill="#161616"/>
<path d="M57.8069 288.035L109.48 319.039V257.031L57.8069 226.027V288.035Z" fill="#161616"/>
<path d="M109.48 257.031V319.039L161.153 288.035V226.027L109.48 257.031Z" fill="#161616"/>
<path d="M109.48 319.039L57.8069 288.035V226.027M109.48 319.039V257.031M109.48 319.039L161.153 288.035V226.027M109.48 257.031L57.8069 226.027M109.48 257.031L161.153 226.027M57.8069 226.027L109.48 195.023L161.153 226.027" stroke="#EAEAEA" stroke-width="4.59316"/>
<path d="M109.48 257.031L161.153 288.035L212.826 257.031L161.153 226.027L109.48 257.031Z" fill="#161616"/>
<path d="M109.48 319.039L161.153 350.042V288.035L109.48 257.031V319.039Z" fill="#161616"/>
<path d="M161.153 288.035V350.042L212.826 319.039V257.031L161.153 288.035Z" fill="#161616"/>
<path d="M161.153 350.042L109.48 319.039V257.031M161.153 350.042V288.035M161.153 350.042L212.826 319.039V257.031M161.153 288.035L109.48 257.031M161.153 288.035L212.826 257.031M109.48 257.031L161.153 226.027L212.826 257.031" stroke="#EAEAEA" stroke-width="4.59316"/>
<path d="M161.153 288.035L212.826 319.039L264.499 288.035L212.826 257.031L161.153 288.035Z" fill="#161616"/>
<path d="M161.153 350.042L212.826 381.046V319.039L161.153 288.035V350.042Z" fill="#161616"/>
<path d="M212.826 319.039V381.046L264.499 350.042V288.035L212.826 319.039Z" fill="#161616"/>
<path d="M212.826 381.046L161.153 350.042V288.035M212.826 381.046V319.039M212.826 381.046L264.499 350.042V288.035M212.826 319.039L161.153 288.035M212.826 319.039L264.499 288.035M161.153 288.035L212.826 257.031L264.499 288.035" stroke="#EAEAEA" stroke-width="4.59316"/>
<path d="M6.13379 133.016L57.8069 164.019L109.48 133.016L57.8069 102.012L6.13379 133.016Z" fill="#161616"/>
<path d="M6.13379 195.023L57.8069 226.027V164.019L6.13379 133.016V195.023Z" fill="#161616"/>
<path d="M57.8069 164.019V226.027L109.48 195.023V133.016L57.8069 164.019Z" fill="#161616"/>
<path d="M57.8069 226.027L6.13379 195.023V133.016M57.8069 226.027V164.019M57.8069 226.027L109.48 195.023V133.016M57.8069 164.019L6.13379 133.016M57.8069 164.019L109.48 133.016M6.13379 133.016L57.8069 102.012L109.48 133.016" stroke="#EAEAEA" stroke-width="4.59316"/>
<path d="M57.8069 164.019L109.48 195.023L161.153 164.019L109.48 133.016L57.8069 164.019Z" fill="#161616"/>
<path d="M57.8069 226.027L109.48 257.031V195.023L57.8069 164.019V226.027Z" fill="#161616"/>
<path d="M109.48 195.023V257.031L161.153 226.027V164.019L109.48 195.023Z" fill="#161616"/>
<path d="M109.48 257.031L57.8069 226.027V164.019M109.48 257.031V195.023M109.48 257.031L161.153 226.027V164.019M109.48 195.023L57.8069 164.019M109.48 195.023L161.153 164.019M57.8069 164.019L109.48 133.016L161.153 164.019" stroke="#EAEAEA" stroke-width="4.59316"/>
<path d="M109.48 195.023L161.153 226.027L212.826 195.023L161.153 164.019L109.48 195.023Z" fill="#161616"/>
<path d="M109.48 257.031L161.153 288.035V226.027L109.48 195.023V257.031Z" fill="#161616"/>
<path d="M161.153 226.027V288.035L212.826 257.031V195.023L161.153 226.027Z" fill="#161616"/>
<path d="M161.153 288.035L109.48 257.031V195.023M161.153 288.035V226.027M161.153 288.035L212.826 257.031V195.023M161.153 226.027L109.48 195.023M161.153 226.027L212.826 195.023M109.48 195.023L161.153 164.019L212.826 195.023" stroke="#EAEAEA" stroke-width="4.59316"/>
<path d="M161.153 226.027L212.826 257.031L264.499 226.027L212.826 195.023L161.153 226.027Z" fill="#161616"/>
<path d="M161.153 288.035L212.826 319.039V257.031L161.153 226.027V288.035Z" fill="#161616"/>
<path d="M212.826 257.031V319.039L264.499 288.035V226.027L212.826 257.031Z" fill="#161616"/>
<path d="M212.826 319.039L161.153 288.035V226.027M212.826 319.039V257.031M212.826 319.039L264.499 288.035V226.027M212.826 257.031L161.153 226.027M212.826 257.031L264.499 226.027M161.153 226.027L212.826 195.023L264.499 226.027" stroke="#EAEAEA" stroke-width="4.59316"/>
<path d="M244 183.1C262.4 182.525 285.4 183.675 285.4 207.25C265.85 207.25 244 208.4 244 183.1Z" fill="#EAEAEA" stroke="#EAEAEA" stroke-width="1.15"/>
<ellipse cx="264.7" cy="195.75" rx="11.5" ry="5.75" fill="#161616"/>
<ellipse cx="264.7" cy="195.75" rx="6.9" ry="3.45" fill="#EAEAEA"/>
<path d="M140 183.1C158.4 182.525 181.4 183.675 181.4 207.25C161.85 207.25 140 208.4 140 183.1Z" fill="#EAEAEA" stroke="#EAEAEA" stroke-width="1.15"/>
<ellipse cx="160.7" cy="195.75" rx="11.5" ry="5.75" fill="#161616"/>
<ellipse cx="160.7" cy="195.75" rx="6.9" ry="3.45" fill="#EAEAEA"/>
<path d="M192 214.1C210.4 213.525 233.4 214.675 233.4 238.25C213.85 238.25 192 239.4 192 214.1Z" fill="#EAEAEA" stroke="#EAEAEA" stroke-width="1.15"/>
<ellipse cx="212.7" cy="226.75" rx="11.5" ry="5.75" fill="#161616"/>
<ellipse cx="212.7" cy="226.75" rx="6.9" ry="3.45" fill="#EAEAEA"/>
<path d="M192 152.1C210.4 151.525 233.4 152.675 233.4 176.25C213.85 176.25 192 177.4 192 152.1Z" fill="#EAEAEA" stroke="#EAEAEA" stroke-width="1.15"/>
<ellipse cx="212.7" cy="164.75" rx="11.5" ry="5.75" fill="#161616"/>
<ellipse cx="212.7" cy="164.75" rx="6.9" ry="3.45" fill="#EAEAEA"/>
<path d="M89 152.1C107.4 151.525 130.4 152.675 130.4 176.25C110.85 176.25 89 177.4 89 152.1Z" fill="#EAEAEA" stroke="#EAEAEA" stroke-width="1.15"/>
<ellipse cx="109.7" cy="164.75" rx="11.5" ry="5.75" fill="#161616"/>
<ellipse cx="109.7" cy="164.75" rx="6.9" ry="3.45" fill="#EAEAEA"/>
<path d="M89 90.1001C107.4 89.5252 130.4 90.6752 130.4 114.25C110.85 114.25 89 115.4 89 90.1001Z" fill="#EAEAEA" stroke="#EAEAEA" stroke-width="1.15"/>
<ellipse cx="109.7" cy="102.75" rx="11.5" ry="5.75" fill="#161616"/>
<ellipse cx="109.7" cy="102.75" rx="6.9" ry="3.45" fill="#EAEAEA"/>
<path d="M140 121.1C158.4 120.525 181.4 121.675 181.4 145.25C161.85 145.25 140 146.4 140 121.1Z" fill="#EAEAEA" stroke="#EAEAEA" stroke-width="1.15"/>
<ellipse cx="160.7" cy="133.75" rx="11.5" ry="5.75" fill="#161616"/>
<ellipse cx="160.7" cy="133.75" rx="6.9" ry="3.45" fill="#EAEAEA"/>
<path d="M37 121.1C55.4 120.525 78.4 121.675 78.4 145.25C58.85 145.25 37 146.4 37 121.1Z" fill="#EAEAEA" stroke="#EAEAEA" stroke-width="1.15"/>
<ellipse cx="57.7" cy="133.75" rx="11.5" ry="5.75" fill="#161616"/>
<ellipse cx="57.7" cy="133.75" rx="6.9" ry="3.45" fill="#EAEAEA"/>
<path d="M348 121.1C366.4 120.525 389.4 121.675 389.4 145.25C369.85 145.25 348 146.4 348 121.1Z" fill="#EAEAEA" stroke="#EAEAEA" stroke-width="1.15"/>
<ellipse cx="368.7" cy="133.75" rx="11.5" ry="5.75" fill="#161616"/>
<ellipse cx="368.7" cy="133.75" rx="6.9" ry="3.45" fill="#EAEAEA"/>
<path d="M244 121.1C262.4 120.525 285.4 121.675 285.4 145.25C265.85 145.25 244 146.4 244 121.1Z" fill="#EAEAEA" stroke="#EAEAEA" stroke-width="1.15"/>
<ellipse cx="264.7" cy="133.75" rx="11.5" ry="5.75" fill="#161616"/>
<ellipse cx="264.7" cy="133.75" rx="6.9" ry="3.45" fill="#EAEAEA"/>
<path d="M296 152.1C314.4 151.525 337.4 152.675 337.4 176.25C317.85 176.25 296 177.4 296 152.1Z" fill="#EAEAEA" stroke="#EAEAEA" stroke-width="1.15"/>
<ellipse cx="316.7" cy="164.75" rx="11.5" ry="5.75" fill="#161616"/>
<ellipse cx="316.7" cy="164.75" rx="6.9" ry="3.45" fill="#EAEAEA"/>
<path d="M296 90.1001C314.4 89.5252 337.4 90.6752 337.4 114.25C317.85 114.25 296 115.4 296 90.1001Z" fill="#EAEAEA" stroke="#EAEAEA" stroke-width="1.15"/>
<ellipse cx="316.7" cy="102.75" rx="11.5" ry="5.75" fill="#161616"/>
<ellipse cx="316.7" cy="102.75" rx="6.9" ry="3.45" fill="#EAEAEA"/>
<path d="M193 90.1001C211.4 89.5252 234.4 90.6752 234.4 114.25C214.85 114.25 193 115.4 193 90.1001Z" fill="#EAEAEA" stroke="#EAEAEA" stroke-width="1.15"/>
<ellipse cx="213.7" cy="102.75" rx="11.5" ry="5.75" fill="#161616"/>
<ellipse cx="213.7" cy="102.75" rx="6.9" ry="3.45" fill="#EAEAEA"/>
<path d="M193 28.1001C211.4 27.5252 234.4 28.6752 234.4 52.2501C214.85 52.2501 193 53.4002 193 28.1001Z" fill="#EAEAEA" stroke="#EAEAEA" stroke-width="1.15"/>
<ellipse cx="213.7" cy="40.7503" rx="11.5" ry="5.75" fill="#161616"/>
<ellipse cx="213.7" cy="40.7503" rx="6.9" ry="3.45" fill="#EAEAEA"/>
<path d="M244 59.1001C262.4 58.5252 285.4 59.6752 285.4 83.2501C265.85 83.2501 244 84.4002 244 59.1001Z" fill="#EAEAEA" stroke="#EAEAEA" stroke-width="1.15"/>
<ellipse cx="264.7" cy="71.7503" rx="11.5" ry="5.75" fill="#161616"/>
<ellipse cx="264.7" cy="71.7503" rx="6.9" ry="3.45" fill="#EAEAEA"/>
<path d="M141 59.1001C159.4 58.5252 182.4 59.6752 182.4 83.2501C162.85 83.2501 141 84.4002 141 59.1001Z" fill="#EAEAEA" stroke="#EAEAEA" stroke-width="1.15"/>
<ellipse cx="161.7" cy="71.7503" rx="11.5" ry="5.75" fill="#161616"/>
<ellipse cx="161.7" cy="71.7503" rx="6.9" ry="3.45" fill="#EAEAEA"/>
</svg>
