<svg width="425" height="553" viewBox="0 0 425 553" fill="none" xmlns="http://www.w3.org/2000/svg">
<rect width="425" height="553" fill="#161616"/>
<path d="M210.728 434.735L6.45514 312.172L210.728 190.175L415 312.171L210.728 434.735Z" fill="#161616"/>
<path d="M210.728 458L415 335.435V312.171L210.728 434.735V458Z" fill="#161616"/>
<path d="M6.45514 335.436L210.728 458V434.735L6.45514 312.172V335.436Z" fill="#161616"/>
<path d="M210.728 458L6.45514 335.436V312.172M210.728 458L415 335.435M210.728 458V434.735M415 335.435C415 333.166 415 313.079 415 312.171M415 335.435V312.171M6.45514 312.172L210.728 434.735M6.45514 312.172L210.728 190.175L415 312.171M210.728 434.735L415 312.171" stroke="#4141FC" stroke-width="2.72"/>
<path d="M210.728 303.188L26.8828 193.089L210.728 83.4992L394.573 193.089L210.728 303.188Z" fill="#161616"/>
<path d="M210.728 421.703L394.573 311.603V193.089L210.728 303.188V421.703Z" fill="#161616"/>
<path d="M26.8828 311.604L210.728 421.703V303.188L26.8828 193.089L26.8828 311.604Z" fill="#161616"/>
<path d="M210.728 421.703L26.8828 311.604L26.8828 193.089M210.728 421.703L394.573 311.603M210.728 421.703V303.188M394.573 311.603C394.573 309.565 394.573 193.904 394.573 193.089M394.573 311.603V193.089M26.8828 193.089L210.728 303.188M26.8828 193.089L210.728 83.4992L394.573 193.089M210.728 303.188L394.573 193.089" stroke="#4141FC" stroke-width="2.72"/>
<path d="M259.527 367.211L286.763 383.667L378.118 329.194L350.882 312.739L259.527 367.211Z" fill="#161616"/>
<path d="M259.527 428.493L286.763 444.948V383.667L259.527 367.211V428.493Z" fill="#161616"/>
<path d="M286.763 383.667V444.948L378.118 390.476V329.194L286.763 383.667Z" fill="#161616"/>
<path d="M286.763 444.948L259.527 428.493V367.211M286.763 444.948V383.667M286.763 444.948L378.118 390.476V329.194M286.763 383.667L259.527 367.211M286.763 383.667L378.118 329.194M259.527 367.211L350.882 312.739L378.118 329.194" stroke="#4141FC" stroke-width="2.72"/>
<path d="M210.728 227.625V165.208M210.728 227.625L159.66 196.416V135.135M210.728 227.625L262.363 196.416V135.135M210.728 165.208L159.66 135.135M210.728 165.208L262.363 135.135M159.66 135.135L210.728 105.651L262.363 135.135" stroke="#4141FC" stroke-width="2.72"/>
<path d="M190.3 122.084C208.458 121.517 231.155 122.651 231.155 145.916C211.862 145.916 190.3 147.051 190.3 122.084Z" fill="#4141FC" stroke="#4141FC" stroke-width="2.72"/>
<ellipse cx="210.728" cy="134.567" rx="11.3485" ry="5.67423" fill="#161616"/>
<ellipse cx="210.728" cy="134.567" rx="6.80908" ry="3.40454" fill="#4141FC"/>
<path d="M319 390.5L329.732 397L350.5 360" stroke="#4141FC" stroke-width="6" stroke-linecap="round"/>
</svg>
